<?xml version="1.0" standalone="no"?>
<!DOCTYPE svg PUBLIC "-//W3C//DTD SVG 20010904//EN"
 "http://www.w3.org/TR/2001/REC-SVG-20010904/DTD/svg10.dtd">
<svg version="1.0" xmlns="http://www.w3.org/2000/svg"
 width="2000.000000pt" height="431.000000pt" viewBox="0 0 2000.000000 431.000000"
 preserveAspectRatio="xMidYMid meet">

<g transform="translate(0.000000,431.000000) scale(0.100000,-0.100000)"
fill="#000000" stroke="none">
<path d="M11837 4278 c3 -18 17 -62 30 -98 13 -36 32 -110 44 -165 27 -137 38
-171 75 -235 17 -30 35 -65 38 -77 4 -13 11 -23 16 -23 14 0 42 -98 35 -122
-4 -15 -3 -19 3 -10 9 13 26 -41 54 -171 l13 -58 34 29 c23 19 31 31 23 36 -7
4 -12 30 -12 59 0 29 -5 70 -11 92 -32 122 -40 143 -56 147 -24 6 -53 60 -36
65 7 3 21 12 32 21 18 16 18 24 5 202 -7 108 -19 203 -28 229 -19 52 -20 65
-4 55 8 -5 9 0 5 17 -4 13 -7 27 -7 32 0 4 -16 7 -35 7 -30 0 -35 -3 -35 -22
1 -13 7 -41 15 -62 15 -42 12 -58 -8 -50 -7 2 -13 26 -14 55 -2 60 -15 79 -54
79 -36 0 -36 -6 -4 -104 28 -87 28 -86 16 -86 -5 0 -18 22 -30 49 -11 27 -28
51 -36 55 -11 4 -14 13 -10 25 8 27 -15 61 -42 61 -20 0 -22 -4 -16 -32z"/>
<path d="M12132 4260 c3 -27 1 -53 -5 -59 -6 -6 -1 -32 16 -74 25 -61 25 -70
17 -153 -13 -121 -11 -143 6 -59 35 178 25 395 -19 395 -17 0 -19 -6 -15 -50z"/>
<path d="M16725 4288 c-62 -89 -105 -166 -110 -201 -4 -23 -16 -62 -27 -87
-43 -98 -43 -98 13 -45 l52 50 -41 -51 c-36 -43 -42 -57 -42 -98 0 -29 4 -45
10 -41 6 3 10 17 10 31 0 13 4 24 9 24 11 0 24 -64 14 -67 -9 -3 -8 -182 1
-191 3 -3 7 -1 7 4 3 21 9 113 12 168 1 37 7 61 15 64 6 2 12 10 12 18 0 7 12
16 28 19 38 8 75 28 80 43 3 9 -2 10 -22 2 -31 -11 -34 -1 -10 35 9 13 13 28
10 34 -3 5 3 7 14 4 16 -4 20 0 20 21 0 14 -9 35 -20 46 -12 12 -18 25 -15 30
11 18 -12 10 -30 -10 -19 -21 -41 -28 -30 -10 4 6 -1 24 -9 41 -15 29 -14 32
18 77 30 42 61 112 51 112 -2 0 -11 -10 -20 -22z"/>
<path d="M16660 3848 c0 -2 -2 -47 -3 -100 -1 -54 -5 -98 -9 -98 -4 0 -10 -20
-13 -45 -5 -30 -17 -55 -39 -77 -17 -18 -34 -32 -38 -31 -4 2 -20 -15 -35 -38
-17 -26 -36 -42 -54 -46 -15 -3 -41 -19 -57 -37 -15 -17 -41 -41 -58 -53 -108
-84 -174 -137 -174 -142 0 -3 16 -25 34 -49 31 -38 35 -41 41 -23 6 19 62 80
126 137 13 12 70 69 127 128 60 62 111 106 122 106 10 0 31 10 46 23 21 18 27
33 29 72 2 28 6 83 10 123 4 50 3 77 -5 87 -6 8 -9 19 -5 25 4 6 -1 18 -11 25
-17 13 -34 19 -34 13z"/>
<path d="M13390 3788 c-30 -5 -68 -7 -83 -4 -38 8 -159 -56 -202 -106 -50 -59
-92 -154 -117 -263 -22 -94 -23 -121 -23 -443 1 -260 4 -345 13 -351 9 -5 13
-45 15 -127 2 -144 -4 -174 -38 -174 -13 0 -27 -4 -30 -10 -3 -5 -16 -10 -27
-10 -12 0 -38 -17 -58 -38 -48 -51 -78 -144 -85 -264 -7 -112 -7 -112 113
-183 121 -71 123 -84 2 -21 -30 16 -65 30 -77 32 -11 1 -31 5 -43 9 -19 6 -21
5 -11 -13 6 -11 17 -26 24 -34 7 -7 32 -37 55 -66 23 -30 42 -51 42 -47 0 10
94 -106 123 -152 14 -23 43 -54 64 -70 45 -34 61 -50 91 -91 27 -38 29 -51 4
-29 -10 10 -22 14 -25 10 -4 -3 -7 -1 -7 5 0 6 -13 17 -29 25 l-29 14 20 -33
c11 -19 24 -31 29 -28 5 3 9 -4 9 -16 0 -12 5 -18 10 -15 6 3 10 0 10 -9 0 -8
16 -35 35 -60 19 -26 35 -50 35 -54 0 -11 -82 79 -118 128 -17 25 -41 56 -53
70 l-21 25 17 -29 c46 -76 55 -96 79 -169 15 -43 34 -90 43 -105 17 -27 17
-27 -3 -9 -27 22 -34 22 -34 -3 0 -11 4 -20 10 -20 5 0 12 -11 16 -25 3 -14
10 -22 15 -19 5 3 7 -1 5 -8 -3 -7 29 -42 70 -77 41 -35 72 -66 69 -69 -2 -3
-32 14 -65 38 -34 23 -64 40 -67 36 -3 -3 2 -8 11 -12 9 -3 16 -13 16 -21 0
-8 5 -11 10 -8 6 3 10 0 10 -7 0 -8 15 -31 34 -51 18 -20 31 -37 28 -37 -3 0
3 -7 14 -15 18 -13 18 -14 1 -15 -30 0 -10 -17 28 -24 39 -8 39 -26 0 -26 -31
0 -40 -16 -18 -29 17 -9 17 -10 1 -16 -20 -8 -24 -41 -5 -43 6 -1 28 -5 47
-10 28 -8 30 -10 10 -10 -14 0 -49 3 -77 7 -29 4 -53 6 -53 3 0 -15 45 -149
54 -160 31 -40 83 -83 114 -93 66 -22 242 2 340 47 29 13 57 24 63 24 18 0
142 85 177 120 35 37 45 85 15 76 -38 -11 -305 -26 -320 -18 -10 6 10 10 58
11 40 1 75 4 77 6 9 9 -21 65 -35 65 -8 0 -11 5 -8 10 3 6 22 10 41 10 19 0
34 4 34 10 0 5 -10 10 -22 10 -13 -1 -59 0 -103 0 -44 0 -105 -2 -135 -5 -35
-4 -50 -3 -40 3 8 5 65 12 126 16 61 3 136 10 165 15 30 6 82 13 116 16 l63 7
29 51 c25 44 28 59 24 100 -3 26 -10 50 -15 53 -12 7 -38 -58 -38 -96 0 -30
-2 -31 -37 -30 -63 3 -73 1 -73 -16 0 -10 6 -14 14 -11 15 6 66 -13 66 -24 0
-12 -55 -17 -95 -9 -26 5 -31 8 -16 9 21 1 23 3 10 13 -38 32 -41 45 -18 67
l23 21 -32 0 c-73 0 -214 -46 -225 -73 -3 -6 -6 -3 -6 8 -1 16 -3 17 -11 5 -5
-8 -12 -11 -15 -8 -4 4 -4 11 -1 16 7 13 123 68 160 78 34 8 102 73 118 111
16 40 12 68 -17 113 -24 37 -24 40 -6 52 10 7 21 24 24 38 3 14 29 45 57 69
50 43 61 61 37 61 -8 0 -58 -22 -113 -49 -69 -34 -119 -68 -164 -110 -35 -34
-68 -61 -72 -61 -17 0 -6 43 17 68 26 28 31 42 15 42 -5 0 -14 9 -20 19 -12
23 3 71 21 71 7 0 50 19 96 42 l83 41 0 46 c-1 69 3 95 14 103 7 5 3 8 -8 8
-12 0 -16 5 -12 15 10 26 -16 16 -65 -24 -58 -50 -130 -92 -189 -113 -25 -8
-53 -19 -62 -23 -12 -5 -18 -3 -18 6 0 8 31 33 68 56 112 69 125 84 125 140 0
26 -7 68 -17 92 -12 33 -14 46 -5 57 9 10 4 20 -20 45 -34 33 -40 75 -19 126
14 34 15 39 17 59 0 8 5 13 10 9 10 -5 24 26 19 42 -2 5 16 47 39 94 93 188
113 257 114 384 0 71 13 119 36 144 12 11 11 18 -3 39 -9 14 -20 41 -25 60 -6
29 -4 34 15 42 13 5 33 25 44 44 12 20 26 36 32 36 5 0 10 7 10 15 0 8 4 23 9
33 5 9 16 40 26 69 17 52 17 53 -6 85 -12 18 -38 50 -56 71 -47 53 -41 87 25
142 46 38 40 48 -18 25 -66 -26 -80 -14 -69 62 5 29 12 96 15 148 6 89 5 96
-15 114 -12 11 -21 14 -21 7 0 -7 -10 -3 -22 9 -14 13 -24 16 -29 9 -4 -7 -9
-4 -13 7 -3 9 -9 14 -13 10 -3 -3 -16 0 -27 7 -50 31 -224 51 -316 35z m417
-454 c-3 -3 -12 -4 -19 -1 -8 3 -5 6 6 6 11 1 17 -2 13 -5z m-114 -269 c17
-24 20 -82 5 -91 -12 -7 -30 45 -23 66 3 10 1 21 -5 25 -12 7 -14 25 -2 25 4
0 15 -12 25 -25z m21 9 c5 -14 4 -15 -9 -4 -17 14 -19 20 -6 20 5 0 12 -7 15
-16z m26 -585 c0 -5 4 -7 10 -4 5 3 15 -6 22 -21 11 -24 10 -29 -16 -51 -19
-16 -36 -23 -51 -19 -16 4 -25 0 -32 -17 -11 -22 -11 -22 -24 6 -12 26 -11 30
14 53 25 23 31 36 28 57 0 4 10 7 24 7 14 0 25 -5 25 -11z m-43 -141 c-3 -8
-6 -5 -6 6 -1 11 2 17 5 13 3 -3 4 -12 1 -19z m-748 -67 c12 -8 10 -16 -13
-45 -28 -38 -51 -53 -97 -66 -26 -8 -29 -6 -29 16 0 35 66 104 99 104 14 0 32
-4 40 -9z m866 -1101 c-3 -5 -11 -10 -16 -10 -6 0 -7 5 -4 10 3 6 11 10 16 10
6 0 7 -4 4 -10z m-382 -447 c-13 -2 -33 -2 -45 0 -13 2 -3 4 22 4 25 0 35 -2
23 -4z m137 -107 c0 -3 -4 -8 -10 -11 -5 -3 -10 -1 -10 4 0 6 5 11 10 11 6 0
10 -2 10 -4z m70 -12 c0 -2 -11 -4 -25 -4 -14 0 -25 4 -25 9 0 4 11 6 25 3 14
-2 25 -6 25 -8z m-175 -4 c7 -12 -2 -12 -30 0 -19 8 -19 9 2 9 12 1 25 -3 28
-9z m50 0 c-3 -5 -12 -10 -18 -10 -7 0 -6 4 3 10 19 12 23 12 15 0z m425 -5
c0 -2 -12 -11 -28 -19 -23 -12 -35 -12 -77 -1 l-50 13 75 4 c41 2 76 5 78 6 1
1 2 0 2 -3z"/>
<path d="M16582 3564 c-1 -17 2 -24 11 -22 17 6 22 48 5 48 -8 0 -15 -12 -16
-26z"/>
<path d="M16879 3522 c-30 -25 -19 -50 31 -69 27 -11 40 -22 38 -32 -5 -23
-36 -26 -59 -5 -21 19 -35 14 -26 -10 8 -21 54 -31 83 -17 20 9 25 17 22 39
-2 21 -11 29 -38 38 -36 12 -50 36 -30 49 7 4 23 2 36 -6 30 -16 46 -2 20 17
-27 19 -49 18 -77 -4z"/>
<path d="M17707 3534 c-4 -4 -7 -15 -7 -24 0 -11 -9 -16 -27 -15 -19 0 -31 -8
-42 -27 -14 -25 -14 -31 -1 -55 13 -23 23 -28 55 -28 l40 1 3 68 c3 65 -5 95
-21 80z m-12 -94 c0 -41 -27 -53 -45 -21 -14 27 4 64 28 59 12 -2 17 -13 17
-38z"/>
<path d="M18155 3528 c-9 -24 -1 -143 10 -143 13 0 19 135 6 148 -7 7 -12 5
-16 -5z"/>
<path d="M18510 3516 c0 -19 -4 -22 -23 -19 -31 6 -57 -20 -57 -57 0 -39 24
-60 65 -58 l35 1 0 79 c0 45 -4 78 -10 78 -5 0 -10 -11 -10 -24z m-2 -74 c2
-22 -2 -34 -12 -38 -34 -13 -61 37 -34 64 21 21 43 9 46 -26z"/>
<path d="M18686 3529 c-10 -23 -3 -144 9 -144 6 0 12 20 15 45 4 37 9 45 25
45 17 0 20 -8 23 -47 4 -63 22 -62 22 1 0 56 -17 76 -54 67 -21 -5 -25 -2 -28
21 -3 21 -6 24 -12 12z"/>
<path d="M19016 3532 c-2 -4 -16 -39 -30 -76 -27 -70 -26 -99 1 -58 20 29 69
30 78 2 3 -11 11 -20 17 -20 12 0 6 28 -23 105 -19 52 -31 65 -43 47z m29 -69
c5 -19 2 -23 -14 -23 -23 0 -24 3 -15 38 7 26 18 20 29 -15z"/>
<path d="M17387 3507 c-6 -15 6 -98 17 -115 9 -14 36 -16 36 -2 0 6 -4 10 -10
10 -15 0 -12 78 2 82 9 3 8 9 -4 21 -20 20 -34 22 -41 4z"/>
<path d="M18610 3503 c-10 -12 -11 -18 -2 -21 7 -2 12 -22 12 -48 0 -31 5 -46
15 -51 9 -3 19 -2 23 2 4 4 1 10 -5 12 -17 6 -17 80 -1 85 9 3 8 9 -4 21 -20
20 -19 20 -38 0z"/>
<path d="M17006 3484 c-34 -33 -10 -104 34 -104 25 0 58 32 39 39 -7 2 -15 -1
-17 -7 -2 -7 -12 -12 -23 -12 -23 0 -36 44 -19 65 15 18 37 20 42 4 2 -7 10
-10 17 -8 11 4 10 9 -3 22 -22 21 -50 22 -70 1z"/>
<path d="M17123 3493 c-25 -10 -12 -22 17 -16 23 4 30 2 30 -11 0 -10 -8 -16
-24 -16 -32 0 -53 -26 -39 -48 7 -11 23 -17 49 -16 l39 0 -1 48 c-1 58 -25 78
-71 59z m47 -68 c0 -19 -24 -30 -41 -19 -9 5 -7 11 6 21 24 17 35 17 35 -2z"/>
<path d="M17220 3439 c0 -70 18 -79 22 -11 3 39 6 47 23 47 17 0 20 -8 23 -47
2 -27 7 -48 13 -48 11 0 13 109 2 111 -5 1 -25 3 -45 4 l-38 2 0 -58z"/>
<path d="M17466 3478 c-9 -12 -16 -29 -16 -38 0 -27 30 -60 54 -60 27 0 56 29
56 56 0 31 -29 64 -55 64 -13 0 -31 -10 -39 -22z m64 -18 c14 -26 -4 -63 -28
-58 -18 3 -28 39 -18 64 8 20 34 17 46 -6z"/>
<path d="M17766 3484 c-32 -31 -11 -104 30 -104 36 0 54 20 54 60 0 29 -5 42
-19 50 -27 14 -47 13 -65 -6z m60 -29 c8 -34 -1 -55 -25 -55 -25 0 -39 43 -21
65 19 23 39 18 46 -10z"/>
<path d="M17864 3485 c3 -10 11 -37 17 -61 14 -53 36 -57 45 -9 8 43 18 45 30
3 5 -17 14 -33 20 -35 11 -4 48 106 39 115 -9 10 -23 -11 -30 -45 l-8 -38 -12
39 c-16 54 -31 56 -47 4 l-13 -42 -10 39 c-7 21 -17 41 -25 43 -9 3 -11 -1 -6
-13z"/>
<path d="M18040 3438 c0 -70 18 -78 22 -10 3 39 6 47 23 47 17 0 20 -8 23 -47
4 -63 22 -62 22 1 0 56 -13 71 -58 68 -32 -2 -32 -2 -32 -59z"/>
<path d="M18218 3489 c-26 -15 -25 -85 1 -99 43 -22 81 1 81 50 0 49 -41 73
-82 49z m52 -24 c7 -9 10 -25 6 -41 -9 -33 -49 -31 -54 4 -7 48 21 69 48 37z"/>
<path d="M18330 3485 c-11 -13 -9 -15 18 -13 40 4 41 -15 1 -25 -25 -7 -30
-12 -27 -35 3 -24 7 -27 46 -28 l42 -1 0 47 c0 25 -5 51 -12 58 -17 17 -53 15
-68 -3z m58 -62 c-4 -23 -48 -31 -48 -9 0 13 14 21 43 25 5 0 7 -7 5 -16z"/>
<path d="M18816 3484 c-9 -8 -16 -28 -16 -44 0 -52 60 -81 91 -44 11 14 9 15
-23 9 -27 -5 -37 -3 -41 9 -5 13 1 16 33 16 33 0 40 3 40 19 0 25 -26 51 -50
51 -10 0 -26 -7 -34 -16z m62 -21 c2 -9 -7 -13 -27 -13 -23 0 -29 4 -24 16 6
17 44 15 51 -3z"/>
<path d="M19110 3418 c0 -45 4 -78 10 -78 6 0 10 11 10 25 0 22 3 25 25 19 35
-9 55 11 55 56 0 46 -14 59 -62 57 l-38 -1 0 -78z m78 24 c2 -22 -2 -34 -12
-38 -34 -13 -61 37 -34 64 21 21 43 9 46 -26z"/>
<path d="M19234 3491 c-2 -2 -4 -37 -4 -78 0 -58 3 -73 15 -73 9 0 15 9 15 23
0 18 5 23 27 22 19 0 31 8 42 28 14 24 14 30 1 55 -13 22 -23 27 -53 27 -21 0
-40 -1 -43 -4z m76 -31 c14 -26 -4 -63 -28 -58 -18 3 -28 39 -18 64 8 20 34
17 46 -6z"/>
<path d="M5807 3433 c-12 -11 -8 -2553 3 -2553 7 0 10 433 10 1280 0 704 -1
1280 -3 1280 -2 0 -7 -3 -10 -7z"/>
<path d="M16484 3293 c-35 -36 -101 -121 -119 -153 -4 -8 18 10 49 40 31 30
56 60 56 66 0 7 6 14 13 17 12 5 52 67 43 67 -3 0 -22 -17 -42 -37z"/>
<path d="M14010 3310 c0 -5 5 -10 11 -10 5 0 7 5 4 10 -3 6 -8 10 -11 10 -2 0
-4 -4 -4 -10z"/>
<path d="M13960 3300 c-8 -5 -11 -12 -8 -16 10 -9 38 3 38 16 0 12 -10 13 -30
0z"/>
<path d="M16955 3263 c-70 -20 -95 -65 -95 -176 0 -71 4 -89 23 -118 35 -52
59 -60 168 -57 80 3 101 6 119 23 35 31 50 78 50 155 0 133 -37 171 -170 176
-41 2 -84 0 -95 -3z m187 -70 c15 -13 18 -32 18 -103 0 -107 -11 -122 -100
-128 -121 -9 -140 8 -140 125 0 117 6 123 118 123 65 0 90 -4 104 -17z"/>
<path d="M16962 3088 l3 -73 75 0 75 0 3 73 3 72 -81 0 -81 0 3 -72z"/>
<path d="M17320 3220 c0 -27 4 -50 9 -50 21 0 41 13 41 26 0 8 9 14 19 14 28
0 33 13 15 38 -11 15 -26 22 -50 22 l-34 0 0 -50z"/>
<path d="M17527 3264 c-9 -10 15 -54 30 -54 7 0 13 -11 13 -25 0 -23 -3 -25
-49 -25 -45 0 -49 -2 -44 -21 4 -12 14 -24 25 -26 11 -3 18 -14 18 -29 0 -22
-4 -24 -50 -24 l-50 0 0 50 c0 28 -3 50 -6 50 -16 0 -44 -23 -44 -35 0 -9 -10
-15 -25 -15 -20 0 -25 5 -25 26 0 20 -4 25 -16 20 -9 -3 -20 -6 -25 -6 -5 0
-9 -64 -9 -145 l0 -145 50 0 c47 0 50 -2 50 -25 0 -25 -1 -25 -79 -25 -76 0
-79 1 -85 25 l-7 26 -117 -3 c-113 -3 -117 -4 -120 -25 -5 -35 -52 -32 -52 2
0 20 -5 25 -25 25 -20 0 -25 -5 -25 -25 0 -20 5 -25 25 -25 23 0 25 -3 25 -49
0 -44 -3 -50 -22 -53 -20 -3 -23 -9 -23 -53 0 -44 3 -50 22 -53 19 -3 22 -11
25 -50 3 -40 6 -47 26 -50 14 -2 22 -10 22 -23 0 -26 36 -25 50 1 16 30 58 26
66 -5 5 -21 12 -25 45 -25 39 0 44 5 33 34 -4 11 -19 16 -45 16 -32 0 -42 5
-51 24 -8 20 -20 26 -52 28 l-41 3 0 100 c0 95 1 100 22 103 14 2 23 11 25 25
2 14 11 23 26 25 18 3 22 -1 22 -22 0 -16 6 -26 14 -26 17 0 46 27 46 41 0 6
21 9 48 7 40 -3 47 -6 50 -25 3 -21 0 -23 -47 -23 -34 0 -51 -4 -51 -12 0 -25
16 -37 55 -40 33 -2 41 -7 43 -25 3 -19 -1 -23 -22 -23 -22 0 -26 -4 -26 -31
0 -26 3 -30 23 -27 14 2 23 11 25 25 3 19 11 22 50 25 l47 3 3 53 3 52 75 0
c72 0 74 -1 74 -25 0 -20 5 -25 24 -25 19 0 25 -6 28 -27 2 -20 9 -29 26 -31
21 -3 23 -8 20 -50 l-3 -47 -47 -3 c-39 -3 -47 -7 -50 -25 -2 -12 -12 -24 -24
-27 -18 -4 -20 -9 -13 -27 7 -19 16 -23 49 -23 36 0 40 -2 40 -25 0 -20 -5
-25 -24 -25 -20 0 -23 -4 -19 -21 4 -12 14 -24 25 -26 11 -3 18 -14 18 -29 0
-27 3 -28 31 -14 14 8 19 21 19 50 0 36 3 40 25 40 23 0 25 3 25 49 0 44 -3
50 -22 53 -34 5 -36 45 -4 60 14 6 26 17 26 25 0 7 11 13 25 13 27 0 31 10 15
41 -8 14 -21 19 -50 19 -36 0 -40 3 -40 25 0 20 -5 25 -25 25 -20 0 -25 5 -25
25 0 18 7 26 25 31 22 5 25 12 25 50 0 40 2 44 25 44 24 0 25 -2 25 -75 0 -53
4 -75 13 -75 24 0 36 16 39 55 2 33 7 41 26 43 20 3 22 0 22 -47 0 -44 -3 -50
-22 -53 -32 -4 -33 -52 -1 -56 14 -2 23 -11 25 -25 4 -31 52 -31 56 0 3 19 11
22 50 25 l47 3 0 50 0 50 -47 3 c-43 3 -48 5 -48 28 0 17 5 24 20 24 20 0 26
16 12 37 -4 7 -36 13 -72 15 -59 3 -65 5 -68 26 -3 18 1 22 21 22 25 0 42 23
31 41 -3 5 -16 9 -30 9 -19 0 -24 -5 -24 -25 0 -20 -5 -25 -25 -25 -23 0 -25
3 -25 49 0 47 2 50 27 53 21 2 28 8 28 26 0 14 9 27 25 35 22 11 25 20 28 75
3 54 6 62 22 62 23 0 26 18 7 44 -9 12 -23 17 -47 14 l-35 -3 -3 -103 c-3
-100 -3 -103 -25 -100 -21 3 -22 8 -25 106 l-3 102 -43 0 c-23 0 -45 -3 -49
-6z m-97 -229 c5 -14 16 -25 25 -25 11 0 15 -12 15 -50 0 -47 -2 -50 -25 -50
-20 0 -25 5 -25 25 0 14 -3 25 -6 25 -16 0 -44 -23 -44 -35 0 -9 -10 -15 -25
-15 -24 0 -25 2 -25 75 l0 75 50 0 c45 0 52 -3 60 -25z m190 0 c0 -20 -5 -25
-25 -25 -20 0 -25 5 -25 25 0 20 5 25 25 25 20 0 25 -5 25 -25z m-50 -125 c0
-44 -3 -52 -25 -62 -20 -9 -25 -18 -25 -50 0 -34 -3 -38 -25 -38 -24 0 -25 2
-25 73 0 69 2 75 25 85 14 6 25 18 25 27 0 9 9 15 25 15 23 0 25 -3 25 -50z
m200 -225 c0 -18 -5 -25 -20 -25 -20 0 -28 28 -13 43 15 16 33 6 33 -18z"/>
<path d="M17930 3241 c0 -27 4 -31 25 -31 26 0 26 -1 23 -72 l-3 -73 -72 -3
c-72 -3 -73 -3 -73 23 0 29 0 28 -35 15 -23 -9 -26 -15 -23 -48 3 -32 0 -37
-20 -40 -34 -5 -27 -41 11 -55 10 -4 15 -11 12 -17 -12 -19 5 -30 30 -18 20 9
25 18 25 50 0 35 2 39 23 36 19 -3 22 -9 22 -48 0 -39 -3 -45 -22 -48 -34 -5
-28 -41 10 -55 9 -3 17 -15 17 -26 0 -13 8 -21 23 -23 14 -2 23 -11 25 -25 2
-13 6 -23 8 -23 16 0 44 23 44 35 0 12 16 15 75 15 73 0 75 -1 75 -25 0 -20
-5 -25 -25 -25 -14 0 -25 -5 -25 -10 0 -6 11 -21 25 -34 14 -13 25 -31 25 -40
0 -10 -9 -16 -25 -16 -18 0 -25 5 -25 20 0 11 -4 20 -9 20 -21 0 -41 -13 -41
-26 0 -10 -14 -14 -49 -14 l-50 0 -3 -52 c-3 -46 -6 -53 -25 -56 -17 -3 -23
-10 -23 -28 0 -21 4 -25 23 -22 16 2 23 11 25 31 2 15 9 27 18 27 7 0 19 9 26
20 7 11 23 20 35 20 21 0 23 -5 23 -45 0 -45 5 -50 34 -39 11 4 16 19 16 45 0
35 3 39 25 39 24 0 25 -2 25 -75 l0 -75 -125 0 c-69 0 -125 -3 -125 -6 0 -16
23 -44 35 -44 9 0 15 -10 15 -25 0 -20 -5 -25 -25 -25 -18 0 -25 5 -25 18 0
26 -10 33 -31 21 -14 -7 -19 -21 -19 -49 l0 -40 75 0 c73 0 75 1 75 25 0 23 3
25 48 25 42 0 50 -3 60 -25 6 -14 18 -25 27 -25 9 0 15 -9 15 -25 0 -20 -5
-25 -25 -25 -23 0 -25 -3 -25 -50 0 -47 -2 -50 -25 -50 -23 0 -25 3 -25 50 l0
50 -76 0 c-65 0 -75 -2 -70 -16 3 -9 6 -20 6 -24 0 -5 19 -10 43 -12 35 -2 43
-7 45 -25 3 -21 0 -23 -47 -23 -44 0 -50 3 -53 23 -2 15 -11 23 -28 25 -15 2
-30 12 -35 25 -7 16 -20 23 -47 25 -26 2 -38 -1 -38 -10 0 -25 16 -37 55 -40
33 -2 41 -7 43 -25 2 -16 10 -23 27 -23 16 0 25 -7 29 -24 5 -21 13 -25 49
-28 35 -2 43 -7 45 -25 3 -21 0 -23 -47 -23 -45 0 -51 2 -51 21 0 15 -5 20
-22 17 -19 -2 -24 -11 -28 -48 l-5 -45 -47 -3 c-38 -2 -48 0 -49 12 -1 9 -2
22 -3 29 0 6 -13 13 -28 15 -22 3 -28 9 -28 28 0 19 -5 24 -26 24 -21 0 -25 4
-22 23 2 14 11 23 26 25 25 4 26 6 12 33 -8 14 -21 19 -50 19 -36 0 -40 3 -40
25 0 20 5 25 25 25 20 0 25 5 25 23 0 16 9 28 25 35 21 10 25 19 25 52 0 43
-2 45 -31 30 -14 -8 -19 -21 -19 -50 0 -36 -3 -40 -25 -40 -20 0 -25 -5 -25
-25 0 -20 -5 -25 -25 -25 -20 0 -25 -5 -25 -25 0 -20 -5 -25 -25 -25 -20 0
-25 -5 -25 -25 0 -20 -5 -25 -25 -25 -23 0 -25 4 -25 45 0 25 -4 45 -9 45 -21
0 -41 -13 -41 -26 0 -8 -10 -14 -25 -14 -14 0 -25 -5 -25 -10 0 -6 11 -21 25
-34 32 -30 33 -56 1 -56 -18 0 -25 6 -28 23 -3 20 -9 22 -75 25 -70 3 -73 4
-73 27 0 23 4 25 50 25 l50 0 0 100 c0 98 0 100 23 100 16 0 28 -9 35 -25 6
-14 18 -25 27 -25 9 0 15 -9 15 -25 0 -20 -5 -25 -25 -25 -20 0 -25 -5 -25
-25 0 -20 5 -25 25 -25 20 0 25 5 25 25 0 23 3 25 50 25 28 0 50 3 50 6 0 16
-23 44 -35 44 -9 0 -15 10 -15 25 0 23 -3 25 -50 25 l-50 0 0 74 c0 70 1 75
23 78 14 2 23 11 25 26 5 30 52 32 52 2 0 -21 16 -26 38 -11 8 5 12 23 10 47
-2 32 -7 40 -25 42 -15 2 -23 10 -23 23 0 20 -8 23 -34 13 -11 -4 -16 -19 -16
-50 0 -40 -2 -44 -25 -44 -20 0 -25 -5 -25 -25 0 -18 -7 -26 -25 -31 -22 -5
-25 -12 -25 -50 l0 -44 -50 0 c-27 0 -50 -3 -50 -6 0 -16 23 -44 35 -44 9 0
15 -10 15 -25 0 -20 -5 -25 -25 -25 -14 0 -25 -5 -25 -10 0 -6 11 -21 25 -34
41 -38 33 -54 -27 -58 l-53 -3 -3 -47 c-3 -44 -5 -48 -28 -48 -24 0 -25 3 -23
48 3 52 -11 59 -43 22 -9 -11 -23 -20 -32 -20 -17 0 -20 -9 -10 -34 4 -11 19
-16 45 -16 35 0 39 -3 39 -24 0 -18 -6 -25 -22 -28 -20 -3 -23 -10 -26 -55 -3
-45 -6 -53 -23 -53 -24 0 -24 -15 0 -39 11 -11 21 -27 23 -38 2 -10 13 -19 26
-21 32 -5 30 -49 -3 -62 -20 -8 -25 -16 -25 -43 0 -41 7 -49 31 -36 14 7 19
21 19 49 l0 40 56 0 c51 0 55 -2 52 -22 -2 -14 -12 -24 -28 -28 -36 -8 -34
-44 3 -48 21 -3 27 -9 27 -28 0 -19 5 -24 25 -24 20 0 25 5 25 25 0 20 -5 25
-25 25 -20 0 -25 5 -25 25 0 20 5 25 25 25 20 0 25 5 25 25 0 20 -5 25 -25 25
-20 0 -25 5 -25 25 0 23 3 25 50 25 43 0 50 -3 50 -20 0 -21 8 -24 34 -14 12
5 16 21 16 70 0 62 1 64 25 64 17 0 29 -8 37 -25 9 -20 18 -25 50 -25 34 0 38
-3 38 -25 0 -20 5 -25 25 -25 20 0 25 -5 25 -23 0 -16 -9 -28 -25 -35 -23 -11
-25 -17 -25 -76 0 -61 1 -64 21 -59 12 4 24 14 26 25 8 28 51 23 65 -7 6 -14
17 -25 25 -25 7 0 13 -11 13 -25 0 -20 -5 -25 -24 -25 -18 0 -25 6 -28 24 -3
20 -6 22 -25 15 -19 -7 -23 -16 -23 -49 l0 -40 -75 0 c-73 0 -75 1 -75 25 0
23 3 25 50 25 54 0 55 1 40 31 -9 16 -22 19 -75 19 -63 0 -65 -1 -65 -25 0
-20 -5 -25 -25 -25 -20 0 -25 5 -25 25 0 14 -3 25 -6 25 -16 0 -44 -23 -44
-35 0 -9 -10 -15 -25 -15 -37 0 -31 -39 8 -53 9 -3 17 -16 17 -27 0 -11 3 -20
6 -20 16 0 44 23 44 35 0 9 10 15 25 15 20 0 25 -5 25 -25 0 -20 -5 -25 -25
-25 -34 0 -37 -47 -2 -52 19 -3 22 -10 25 -50 3 -54 13 -59 45 -25 40 41 52
30 55 -50 2 -40 7 -73 12 -73 20 0 40 13 40 26 0 8 10 14 25 14 20 0 25 -5 25
-25 0 -20 5 -25 25 -25 20 0 25 -5 25 -25 0 -20 -5 -25 -25 -25 -20 0 -25 -5
-25 -25 0 -20 -5 -25 -25 -25 -20 0 -25 5 -25 25 0 20 -5 25 -25 25 -20 0 -25
-5 -25 -25 0 -20 5 -25 25 -25 18 0 28 -7 35 -25 8 -21 16 -25 50 -25 36 0 40
-2 40 -25 0 -23 -3 -25 -50 -25 -27 0 -50 -3 -50 -6 0 -16 23 -44 35 -44 9 0
15 -10 15 -25 0 -20 -5 -25 -25 -25 -23 0 -25 -3 -25 -50 0 -56 10 -62 44 -25
13 14 31 25 40 25 13 0 16 12 16 73 0 69 2 75 25 85 14 6 25 18 25 27 0 9 9
15 25 15 20 0 25 -5 25 -25 0 -20 -5 -25 -25 -25 -23 0 -25 -3 -25 -51 0 -43
3 -50 16 -45 9 3 19 6 24 6 5 0 12 9 15 20 3 11 15 20 26 20 17 0 19 8 19 74
0 70 -1 75 -22 78 -15 2 -24 11 -26 25 -2 14 -11 23 -25 25 -14 2 -23 11 -25
26 -3 20 0 22 47 22 44 0 50 -3 53 -22 2 -17 10 -23 28 -23 33 0 36 38 3 43
-18 3 -22 11 -25 53 l-3 49 53 0 c49 0 52 -2 52 -25 0 -20 5 -25 26 -25 22 0
25 4 22 28 -2 21 -8 27 -27 27 -15 0 -28 10 -37 28 -8 15 -19 27 -24 27 -6 0
-10 9 -10 20 0 13 -7 20 -20 20 -11 0 -25 -9 -32 -20 -10 -15 -24 -20 -60 -20
-41 0 -48 3 -48 20 0 11 -4 20 -9 20 -21 0 -41 -13 -41 -26 0 -10 -14 -14 -49
-14 -44 0 -50 3 -53 23 -3 20 -9 22 -75 25 -70 3 -73 4 -73 27 0 25 0 25 100
25 l100 0 0 -25 c0 -26 7 -29 34 -19 11 4 16 19 16 50 l0 44 50 0 c44 0 52 -3
62 -25 10 -23 16 -24 102 -27 86 -3 91 -4 94 -25 5 -35 52 -32 52 2 0 35 47
36 56 1 3 -13 14 -26 25 -29 11 -3 19 -14 19 -26 0 -17 -7 -20 -47 -23 l-48
-3 -3 -47 c-3 -41 -7 -49 -28 -54 -35 -9 -34 -54 2 -54 21 0 25 -4 22 -22 -2
-15 -11 -24 -25 -26 -14 -2 -23 -11 -25 -25 -2 -14 -11 -23 -25 -25 -19 -3
-23 1 -23 22 0 30 -20 34 -45 10 -12 -12 -15 -31 -13 -73 l3 -56 53 -3 52 -3
0 50 c0 47 2 51 23 51 16 0 28 -9 35 -25 6 -14 18 -25 27 -25 9 0 15 -9 15
-25 0 -20 -5 -25 -25 -25 -20 0 -25 -5 -25 -25 0 -20 -5 -25 -25 -25 -25 0
-32 -14 -17 -37 4 -6 25 -13 47 -15 33 -2 41 -7 43 -26 3 -19 9 -22 53 -22 46
0 49 2 49 25 l0 25 100 0 100 0 0 25 c0 35 46 35 62 0 6 -14 17 -25 25 -25 7
0 13 -11 13 -26 0 -20 4 -25 16 -20 9 3 19 6 24 6 4 0 10 9 13 20 8 31 47 27
47 -5 0 -18 -5 -25 -20 -25 -11 0 -20 -4 -20 -9 0 -21 13 -41 26 -41 8 0 14
-10 14 -25 0 -27 10 -31 41 -15 14 8 19 21 19 50 0 33 3 40 20 40 21 0 24 8
14 34 -4 11 -19 16 -49 16 -37 0 -44 3 -49 24 -3 13 -15 26 -27 29 -12 3 -18
10 -14 16 3 6 4 15 0 21 -8 13 -55 -9 -55 -27 0 -24 -46 -15 -58 12 -6 14 -18
25 -27 25 -9 0 -15 9 -15 25 0 20 5 25 25 25 20 0 25 -5 25 -25 0 -14 3 -25 6
-25 16 0 44 23 44 35 0 9 10 15 25 15 18 0 25 -5 25 -18 0 -10 3 -21 6 -25 10
-9 54 15 54 30 0 7 9 13 20 13 11 0 20 4 20 9 0 21 -13 41 -26 41 -8 0 -14 10
-14 25 0 18 5 25 20 25 21 0 26 16 11 38 -5 8 -23 12 -47 10 -39 -3 -39 -3
-42 -51 -3 -43 -5 -48 -25 -45 -19 3 -22 10 -25 50 l-3 47 -97 3 c-92 3 -97 4
-100 26 -2 15 -10 22 -25 22 -14 0 -28 11 -39 30 -14 24 -24 30 -53 30 -31 0
-35 3 -35 25 0 18 7 26 24 31 13 3 26 15 29 25 3 13 12 19 23 17 12 -2 20 5
24 22 5 22 12 25 53 28 44 3 47 2 47 -22 0 -18 -6 -25 -22 -28 -15 -2 -24 -11
-26 -25 -2 -14 -11 -23 -25 -25 -30 -4 -32 -53 -2 -53 12 0 21 9 25 25 4 16
13 25 25 25 12 0 21 -9 25 -25 4 -16 14 -26 28 -28 19 -3 22 1 22 27 0 26 -4
31 -25 31 -20 0 -25 5 -25 25 0 35 40 34 60 -1 11 -20 24 -27 52 -30 l37 -3 3
52 c3 45 6 52 26 55 18 3 22 -1 22 -22 0 -29 16 -33 44 -13 27 20 19 81 -11
85 -17 3 -23 10 -23 28 0 22 4 24 45 24 25 0 45 4 45 9 0 21 -13 41 -26 41 -8
0 -14 10 -14 26 0 21 4 25 23 22 14 -2 23 -11 25 -25 3 -22 8 -23 78 -23 l74
0 0 50 c0 47 2 50 25 50 20 0 25 -5 25 -25 0 -20 5 -25 25 -25 20 0 25 5 25
25 0 20 -5 25 -25 25 -18 0 -28 7 -35 25 -8 21 -16 25 -49 25 l-40 0 -3 -47
c-3 -41 -6 -48 -25 -51 -21 -3 -23 0 -23 48 0 43 -3 51 -16 46 -9 -3 -19 -6
-24 -6 -4 0 -10 -9 -13 -20 -4 -16 -14 -20 -51 -20 l-46 0 0 50 0 50 -55 0
-55 0 0 -48 c0 -42 -3 -50 -25 -60 -21 -10 -25 -19 -25 -52 l0 -40 -50 0 c-47
0 -50 2 -50 25 0 20 -5 25 -23 25 -16 0 -28 9 -35 25 -10 21 -19 25 -52 25
-36 0 -40 2 -40 25 0 14 -5 25 -10 25 -6 0 -21 -11 -34 -25 -43 -46 -56 -34
-56 50 0 73 1 75 25 75 20 0 25 -5 25 -25 0 -23 3 -25 50 -25 47 0 50 -2 50
-25 l0 -25 101 0 c88 0 100 2 95 16 -3 9 -6 19 -6 24 0 4 -9 10 -20 13 -19 5
-21 12 -18 79 l3 73 48 3 c48 3 48 3 45 -25 -2 -20 -9 -29 -25 -31 -20 -3 -23
-9 -23 -48 0 -24 4 -44 9 -44 21 0 41 13 41 26 0 10 14 14 50 14 43 0 50 -3
50 -20 0 -27 36 -27 52 0 7 11 21 20 30 20 19 0 22 8 12 34 -4 11 -19 16 -44
16 -34 0 -38 3 -43 30 -6 28 -9 30 -55 30 -42 0 -50 3 -60 25 -6 14 -19 25
-27 25 -11 0 -15 7 -13 23 3 20 9 22 76 25 71 3 72 3 72 -23 0 -20 5 -25 25
-25 23 0 31 -13 26 -42 0 -5 10 -8 24 -8 17 0 29 -9 40 -30 13 -25 22 -30 50
-30 27 0 35 4 35 18 0 27 -20 42 -56 42 -26 0 -33 4 -36 23 -2 14 -11 23 -25
25 -14 2 -23 11 -25 25 -2 14 -11 23 -25 25 -19 3 -22 11 -25 50 l-3 47 -52 3
c-51 3 -53 2 -53 -22 0 -21 -5 -26 -25 -26 -35 0 -35 42 -1 58 19 8 25 20 28
49 l3 38 98 3 c53 1 97 7 97 12 0 20 -13 40 -26 40 -8 0 -14 10 -14 24 0 19
-6 25 -27 28 -20 2 -28 9 -28 23 0 12 -9 21 -25 25 -16 4 -26 14 -28 28 -3 18
1 22 26 22 21 0 32 -7 40 -25 10 -21 19 -25 52 -25 36 0 40 -2 40 -25 0 -23 3
-25 51 -25 l50 0 -3 -47 c-3 -41 -6 -48 -25 -51 -19 -3 -22 -11 -25 -50 -3
-40 -6 -47 -25 -50 -23 -3 -29 -18 -15 -39 4 -6 25 -13 47 -15 33 -2 41 -7 43
-25 3 -19 -1 -23 -22 -23 -21 0 -26 -5 -26 -25 0 -20 5 -25 25 -25 20 0 25 5
25 23 0 16 9 28 25 35 14 6 25 19 25 27 0 26 44 14 48 -12 3 -19 -1 -23 -23
-23 -21 0 -26 -4 -21 -16 3 -9 6 -20 6 -25 0 -5 31 -9 69 -9 66 0 69 1 64 21
-4 12 -14 24 -25 26 -11 3 -18 14 -18 29 0 19 5 24 25 24 24 0 25 2 25 75 0
73 1 75 25 75 20 0 25 5 25 25 0 18 7 28 25 35 14 5 25 16 25 25 0 9 9 15 25
15 20 0 25 -5 25 -25 0 -20 -5 -25 -25 -25 -24 0 -25 -2 -25 -75 0 -73 -1 -75
-25 -75 -20 0 -25 -5 -25 -25 0 -20 5 -25 25 -25 20 0 25 -5 25 -25 0 -20 -5
-25 -25 -25 l-25 0 0 -150 c0 -84 4 -150 9 -150 21 0 41 13 41 26 0 11 25 14
125 14 93 0 125 3 125 13 0 18 -12 33 -33 40 -15 6 -18 16 -15 54 3 41 6 48
26 51 20 3 22 0 22 -47 0 -57 15 -66 49 -32 12 12 37 21 63 23 l43 3 0 75 0
75 -47 3 -48 3 0 -50 c0 -47 -2 -51 -24 -51 -32 0 -36 7 -29 57 4 30 11 44 29
52 20 9 24 18 24 51 0 34 4 42 25 50 14 5 25 16 25 25 0 9 9 15 25 15 23 0 25
3 25 50 0 56 -10 62 -44 25 -13 -14 -31 -25 -40 -25 -13 0 -16 -10 -16 -49 0
-45 -3 -51 -27 -63 -22 -10 -29 -21 -31 -51 -3 -32 -7 -37 -28 -37 -19 0 -24
5 -24 25 l0 25 -100 0 -100 0 0 25 0 25 100 0 c107 0 117 5 75 44 -14 13 -25
31 -25 39 0 14 -4 15 -25 5 -14 -6 -25 -18 -25 -25 0 -9 -8 -13 -22 -11 -15 2
-23 10 -23 23 0 13 8 21 23 23 16 3 22 10 22 28 0 19 5 24 24 24 18 0 25 6 28
23 2 14 11 23 26 25 12 2 22 9 22 15 -1 30 -18 36 -105 39 -86 3 -90 4 -93 26
-3 16 -8 22 -19 18 -8 -3 -19 -6 -24 -6 -5 0 -9 -31 -9 -70 0 -68 -1 -70 -25
-70 -20 0 -25 -5 -25 -25 0 -18 -7 -28 -25 -35 -14 -5 -25 -16 -25 -25 0 -9
-9 -15 -25 -15 -20 0 -25 5 -25 25 0 20 5 25 25 25 14 0 25 3 25 6 0 16 -23
44 -35 44 -26 0 -18 49 10 62 14 6 25 17 25 25 0 7 11 13 25 13 28 0 29 3 15
31 -8 14 -21 19 -50 19 -36 0 -40 3 -40 24 0 18 6 25 23 28 19 3 22 10 25 51
2 26 -1 47 -7 47 -21 0 -41 -13 -41 -26 0 -8 -10 -14 -26 -14 -21 0 -25 4 -22
23 2 14 11 23 26 25 16 3 22 10 22 28 0 19 5 24 25 24 20 0 25 5 25 24 0 18 6
25 24 28 20 3 22 6 15 26 -7 20 -15 22 -74 22 -63 0 -65 1 -65 25 0 18 7 28
25 35 21 8 25 16 25 50 0 33 4 42 25 52 20 9 25 18 25 50 l0 38 -100 0 -100 0
0 25 0 25 125 0 125 0 0 -45 c0 -25 4 -45 9 -45 21 0 41 13 41 26 0 8 10 14
25 14 24 0 25 2 25 76 0 65 -2 75 -16 70 -9 -3 -19 -6 -24 -6 -4 0 -10 -9 -13
-20 -5 -19 -12 -21 -74 -18 -62 3 -68 5 -71 26 -5 34 -41 27 -55 -11 -6 -16
-17 -18 -74 -16 -64 2 -68 1 -73 -22 -4 -15 -14 -25 -28 -27 -18 -3 -22 2 -22
22 0 28 -10 32 -41 16 -14 -8 -19 -21 -19 -49 0 -31 -5 -40 -25 -49 -14 -6
-25 -18 -25 -27 0 -13 -20 -15 -125 -15 l-125 0 0 25 c0 23 -3 25 -50 25 -47
0 -50 2 -50 25 0 20 5 25 25 25 23 0 25 3 25 50 0 28 -4 50 -9 50 -21 0 -41
-13 -41 -26 0 -8 -10 -14 -24 -14 -18 0 -25 6 -28 23 -2 14 -11 23 -25 25 -20
3 -23 -1 -23 -27z m668 -156 c11 -23 17 -25 77 -25 63 0 65 -1 65 -25 0 -24
-2 -25 -75 -25 -74 0 -75 0 -75 26 0 20 -4 25 -16 20 -9 -3 -20 -6 -25 -6 -5
0 -9 -19 -9 -42 0 -37 -4 -45 -30 -60 -24 -14 -30 -24 -30 -52 0 -28 -4 -35
-22 -38 -15 -2 -24 -11 -26 -25 -3 -20 1 -23 27 -23 27 0 31 4 31 26 0 21 4
25 23 22 34 -5 36 -45 2 -58 -14 -5 -28 -17 -31 -25 -4 -8 -15 -15 -25 -15
-10 0 -19 -5 -19 -11 0 -19 21 -50 31 -44 5 4 9 -5 9 -19 0 -36 -42 -36 -58
-1 -6 14 -19 25 -27 25 -26 0 -14 44 13 48 12 2 22 6 22 8 0 16 -23 44 -35 44
-11 0 -15 13 -15 50 0 47 -2 50 -25 50 -20 0 -25 5 -25 24 0 20 -4 23 -21 19
-12 -4 -24 -14 -26 -25 -3 -11 -14 -18 -29 -18 -22 0 -24 4 -24 50 l0 50 100
0 100 0 0 -25 c0 -20 -5 -25 -25 -25 -20 0 -25 -5 -25 -26 0 -22 4 -25 28 -22
19 2 28 9 30 25 2 14 11 23 25 25 30 4 30 42 0 46 -20 3 -23 9 -23 53 l0 49
73 0 c69 0 75 -2 85 -25z m-618 -150 c0 -73 -1 -75 -25 -75 -24 0 -25 2 -25
75 0 73 1 75 25 75 24 0 25 -2 25 -75z m200 0 l0 -75 -75 0 -75 0 0 75 0 75
75 0 75 0 0 -75z m410 0 c0 -20 -5 -25 -25 -25 -20 0 -25 5 -25 25 0 20 5 25
25 25 20 0 25 -5 25 -25z m100 0 c0 -20 -5 -25 -25 -25 -20 0 -25 -5 -25 -25
0 -20 5 -25 25 -25 20 0 25 -5 25 -25 0 -21 -5 -25 -29 -25 -22 0 -30 6 -35
25 -4 14 -13 25 -21 25 -27 0 -18 49 10 60 14 5 25 16 25 25 0 9 9 15 25 15
20 0 25 -5 25 -25z m-360 -100 c0 -20 -5 -25 -25 -25 -23 0 -25 -3 -25 -50 0
-47 -2 -50 -25 -50 -20 0 -25 5 -25 25 0 20 -5 25 -26 25 -21 0 -25 4 -22 23
2 14 11 23 26 25 16 3 22 10 22 28 0 22 4 24 50 24 47 0 50 -2 50 -25z m308
-77 c3 -45 2 -48 -22 -48 -18 0 -25 6 -28 23 -2 14 -11 23 -25 25 -17 3 -23
10 -23 28 0 24 3 25 48 22 l47 -3 3 -47z m-308 -128 c0 -11 4 -20 9 -20 21 0
41 13 41 26 0 8 10 14 25 14 33 0 35 -37 3 -42 -16 -2 -24 -11 -26 -29 -2 -16
-12 -31 -28 -37 -13 -7 -24 -18 -24 -27 0 -9 -9 -15 -25 -15 -18 0 -26 7 -31
25 -3 14 -11 25 -18 26 -6 0 -24 2 -41 2 -28 2 -30 4 -33 50 l-3 47 75 0 c69
0 76 -2 76 -20z m308 -26 l-3 -46 -47 -2 c-44 -2 -48 0 -48 21 0 30 -22 29
-56 -2 -29 -27 -44 -25 -44 5 0 12 8 20 23 22 14 2 23 11 25 26 3 21 8 22 78
22 l75 0 -3 -46z m102 -104 l0 -50 -50 0 c-46 0 -50 2 -50 24 0 18 6 25 23 28
14 2 23 11 25 26 3 16 10 22 28 22 22 0 24 -4 24 -50z m-448 -25 c9 -20 18
-25 50 -25 34 0 38 -3 38 -25 0 -23 -3 -25 -50 -25 l-50 0 0 -75 c0 -71 -2
-76 -25 -87 -20 -9 -25 -18 -25 -50 0 -34 -3 -38 -25 -38 -24 0 -25 2 -25 75
0 73 1 75 25 75 14 0 25 3 25 6 0 16 -23 44 -35 44 -12 0 -15 16 -15 75 l0 75
50 0 c44 0 52 -3 62 -25z m-162 -100 c0 -20 -5 -25 -25 -25 -20 0 -25 5 -25
25 0 20 5 25 25 25 20 0 25 -5 25 -25z m558 -102 c3 -19 -1 -23 -22 -23 -21 0
-26 5 -26 26 0 21 4 25 23 22 14 -2 23 -11 25 -25z m-1118 -98 c0 -20 -5 -25
-25 -25 -23 0 -25 -3 -25 -51 0 -43 3 -50 16 -45 9 3 19 6 24 6 4 0 10 9 13
20 8 31 47 27 47 -5 0 -20 5 -25 25 -25 21 0 25 -5 25 -30 0 -25 4 -30 25 -30
20 0 25 -5 25 -25 0 -18 -5 -25 -19 -25 -12 0 -21 9 -25 25 -5 18 -13 25 -31
25 -20 0 -25 -5 -25 -25 0 -21 5 -25 30 -25 20 0 30 -5 30 -15 0 -8 9 -20 20
-27 11 -7 20 -21 20 -30 0 -25 37 -23 52 2 10 16 24 20 61 20 44 0 48 -2 45
-22 -3 -20 -10 -23 -50 -26 -54 -4 -59 -13 -22 -47 20 -19 25 -31 22 -61 -2
-31 -8 -39 -28 -44 -16 -4 -26 -14 -28 -28 -5 -32 -48 -30 -56 2 -3 13 -15 26
-27 29 -17 5 -20 12 -17 49 2 36 7 44 26 46 33 5 27 41 -10 55 -10 3 -18 16
-18 27 0 23 -4 24 -31 10 -16 -9 -19 -22 -19 -75 0 -61 -1 -65 -23 -65 -16 0
-28 9 -35 25 -6 14 -18 25 -27 25 -9 0 -15 9 -15 25 0 20 5 25 25 25 20 0 25
5 25 25 0 20 -5 25 -25 25 -20 0 -25 5 -25 25 0 20 -5 25 -25 25 l-25 0 0 105
0 105 25 0 c20 0 25 5 25 25 0 20 5 25 25 25 20 0 25 -5 25 -25z m-305 -155
l0 -75 -72 -3 -73 -3 0 81 0 81 73 -3 72 -3 0 -75z m913 -2 l3 -78 -76 0 -75
0 0 80 0 81 73 -3 72 -3 3 -77z m912 2 l0 -81 -72 3 -73 3 -3 64 c-2 35 -1 70
2 77 4 10 26 14 76 14 l70 0 0 -80z m-1675 0 c0 -18 -6 -26 -22 -28 -18 -3
-23 1 -23 21 0 28 9 39 30 35 9 -2 15 -14 15 -28z m513 -52 c-3 -20 -10 -23
-50 -26 -46 -3 -48 -2 -48 22 0 24 3 26 51 26 47 0 50 -2 47 -22z m10 -203 c6
-14 18 -25 27 -25 12 0 15 -15 15 -75 0 -73 1 -75 25 -75 20 0 25 -5 25 -25 0
-20 -5 -25 -25 -25 -20 0 -25 5 -25 25 0 20 -5 25 -25 25 -20 0 -25 5 -25 25
0 20 -5 25 -25 25 -24 0 -25 2 -25 75 0 72 1 75 23 75 16 0 28 -9 35 -25z
m442 1 c0 -19 6 -25 25 -28 14 -2 25 -6 25 -10 0 -5 0 -26 0 -48 l0 -40 -50 0
c-47 0 -50 -2 -50 -25 0 -20 -5 -25 -24 -25 -20 0 -23 -4 -19 -21 4 -12 14
-24 25 -26 11 -3 18 -14 18 -29 0 -19 -5 -24 -25 -24 -20 0 -25 5 -25 25 0 20
-5 25 -23 25 -16 0 -28 9 -35 25 -10 21 -19 25 -52 25 -36 0 -40 2 -40 25 0
20 -5 25 -25 25 -23 0 -25 3 -25 50 0 47 2 50 25 50 20 0 25 -5 25 -25 0 -20
5 -25 25 -25 18 0 28 -7 35 -25 9 -23 14 -25 74 -25 59 0 65 2 68 23 2 14 11
23 26 25 29 4 28 17 -3 46 -14 13 -25 31 -25 40 0 10 9 16 25 16 20 0 25 -5
25 -24z m-660 -151 c0 -29 -34 -36 -44 -9 -8 21 1 34 25 34 14 0 19 -7 19 -25z
m158 -2 c2 -14 11 -23 25 -25 14 -2 23 -11 25 -25 3 -19 -1 -23 -26 -23 -23 0
-31 5 -36 25 -4 14 -13 25 -21 25 -9 0 -15 10 -15 26 0 21 4 25 23 22 14 -2
23 -11 25 -25z m-210 -255 c-2 -15 -10 -23 -23 -23 -13 0 -21 8 -23 23 -3 18
1 22 23 22 22 0 26 -4 23 -22z m310 -50 c-2 -15 -11 -24 -25 -26 -19 -3 -23 1
-23 22 0 21 5 26 26 26 21 0 25 -4 22 -22z m152 -3 c0 -20 5 -25 25 -25 20 0
25 -5 25 -25 0 -23 -3 -25 -50 -25 -47 0 -50 1 -50 26 0 20 -4 25 -16 20 -9
-3 -19 -6 -24 -6 -4 0 -10 -9 -13 -20 -3 -12 -14 -20 -25 -20 -14 0 -22 -8
-24 -22 -2 -15 -11 -24 -25 -26 -19 -3 -23 1 -23 22 0 21 5 26 25 26 21 0 25
5 25 29 0 22 6 30 25 35 14 4 25 13 25 21 0 11 13 15 50 15 47 0 50 -2 50 -25z
m200 -101 c0 -24 -2 -25 -47 -22 -41 3 -48 6 -51 26 -3 20 0 22 47 22 48 0 51
-2 51 -26z m-150 -99 l0 -75 -75 0 -75 0 0 75 0 75 75 0 75 0 0 -75z"/>
<path d="M18080 2935 c0 -20 5 -25 25 -25 20 0 25 5 25 25 0 20 -5 25 -25 25
-20 0 -25 -5 -25 -25z"/>
<path d="M17570 1915 c0 -20 5 -25 25 -25 20 0 25 5 25 25 0 20 -5 25 -25 25
-20 0 -25 -5 -25 -25z"/>
<path d="M17170 2020 c0 -27 3 -31 23 -28 16 2 22 10 22 28 0 18 -6 26 -22 28
-20 3 -23 -1 -23 -28z"/>
<path d="M18084 2036 c-9 -24 4 -48 23 -44 12 2 18 12 18 28 0 29 -32 41 -41
16z"/>
<path d="M18994 2035 c-9 -23 3 -45 26 -45 16 0 20 7 20 30 0 23 -4 30 -20 30
-11 0 -23 -7 -26 -15z"/>
<path d="M18080 1105 c0 -20 5 -25 25 -25 20 0 25 5 25 25 0 20 -5 25 -25 25
-20 0 -25 -5 -25 -25z"/>
<path d="M18130 3240 c0 -27 3 -31 23 -28 16 2 22 10 22 28 0 18 -6 26 -22 28
-20 3 -23 -1 -23 -28z"/>
<path d="M18236 3262 c-3 -5 2 -18 10 -30 13 -20 24 -22 100 -22 66 0 84 3 84
14 0 34 -30 46 -110 46 -43 0 -81 -4 -84 -8z"/>
<path d="M19085 3263 c-38 -10 -75 -44 -86 -82 -6 -21 -10 -75 -8 -119 4 -77
6 -84 37 -114 32 -32 35 -33 130 -36 110 -3 134 5 169 57 20 29 23 47 23 121
0 74 -3 92 -23 121 -13 19 -38 39 -57 46 -35 12 -147 15 -185 6z m183 -69 c20
-14 22 -23 22 -102 0 -48 -4 -92 -8 -98 -15 -23 -53 -34 -115 -34 -50 0 -70 5
-91 21 -25 19 -26 25 -26 109 0 112 8 120 120 120 52 0 82 -5 98 -16z"/>
<path d="M19092 3088 l3 -73 78 -3 77 -3 0 76 0 75 -80 0 -81 0 3 -72z"/>
<path d="M17843 3253 c-18 -7 -18 -133 0 -133 26 0 37 25 37 82 0 58 -5 64
-37 51z"/>
<path d="M8733 3206 c-329 -63 -586 -292 -699 -624 -58 -172 -69 -244 -69
-467 1 -180 3 -211 27 -310 50 -211 127 -365 247 -497 165 -180 368 -273 621
-285 375 -17 693 179 860 530 136 285 156 674 53 1001 -102 323 -339 558 -643
637 -107 27 -294 34 -397 15z m329 -50 c273 -54 479 -216 608 -481 81 -165
120 -345 120 -555 0 -210 -39 -390 -120 -555 -155 -317 -432 -495 -769 -495
-452 0 -795 322 -876 823 -19 118 -19 336 0 454 62 383 281 672 590 778 131
44 312 57 447 31z"/>
<path d="M8615 2976 c-45 -20 -67 -50 -72 -100 -10 -87 36 -146 114 -146 38 0
50 5 79 34 30 30 34 40 34 88 0 70 -26 113 -77 127 -46 13 -41 13 -78 -3z m79
-49 c11 -8 20 -31 23 -59 5 -40 2 -50 -20 -72 -14 -14 -33 -26 -40 -26 -29 0
-58 35 -64 75 -9 70 51 119 101 82z"/>
<path d="M8810 2855 l0 -125 24 0 c23 0 25 4 28 53 l3 52 53 3 c44 3 52 6 52
23 0 16 -7 19 -55 19 -54 0 -55 0 -55 30 l0 30 60 0 c53 0 60 2 60 20 0 18 -7
20 -85 20 l-85 0 0 -125z"/>
<path d="M9020 2855 l0 -125 24 0 c23 0 25 4 28 53 l3 52 53 3 c44 3 52 6 52
23 0 16 -7 19 -55 19 -54 0 -55 0 -55 30 l0 30 60 0 c53 0 60 2 60 20 0 18 -7
20 -85 20 l-85 0 0 -125z"/>
<path d="M8826 2596 c-80 -30 -139 -116 -173 -253 -24 -95 -24 -351 0 -446 46
-184 144 -281 268 -264 156 21 239 191 239 488 0 181 -30 308 -96 401 -51 73
-154 105 -238 74z m148 -59 c50 -28 101 -118 121 -213 9 -41 15 -124 15 -204
0 -161 -17 -249 -63 -334 -43 -78 -90 -109 -160 -103 -54 5 -91 27 -124 76
-97 142 -111 487 -28 668 14 32 36 69 48 82 49 53 127 65 191 28z"/>
<path d="M10257 3204 c-116 -28 -229 -101 -305 -196 -176 -222 -147 -558 65
-747 71 -64 134 -97 229 -121 353 -90 692 164 696 522 1 152 -46 270 -153 383
-80 84 -153 127 -265 155 -89 23 -184 24 -267 4z m248 -49 c96 -25 162 -60
225 -121 98 -93 140 -172 161 -302 30 -192 -79 -405 -257 -499 -316 -168 -693
19 -745 369 -21 146 33 309 140 417 125 126 310 179 476 136z"/>
<path d="M10325 2810 c-48 -19 -95 -92 -95 -146 0 -39 38 -103 73 -124 72 -44
189 -13 229 60 52 95 -29 221 -141 219 -25 0 -55 -4 -66 -9z m133 -65 c55 -46
50 -130 -9 -160 -102 -53 -208 41 -152 135 32 55 111 67 161 25z"/>
<path d="M18187 3186 c-12 -13 -29 -25 -38 -27 -13 -3 -15 -9 -8 -26 7 -19 16
-23 49 -23 l40 0 0 50 c0 56 -10 62 -43 26z"/>
<path d="M6436 3174 c-14 -13 -16 -55 -16 -307 0 -166 4 -298 10 -307 8 -13
62 -16 353 -20 l343 -5 -327 -700 c-179 -385 -329 -710 -333 -722 -5 -15 -1
-28 13 -42 20 -20 31 -21 374 -21 267 0 357 3 370 12 18 14 934 2013 944 2061
4 19 0 34 -12 47 -18 20 -35 20 -861 20 -753 0 -844 -2 -858 -16z m1684 -41
c0 -6 -222 -494 -575 -1268 -80 -176 -192 -420 -247 -542 l-101 -223 -338 0
c-228 0 -339 3 -339 10 0 6 10 30 22 53 11 23 80 170 153 327 73 157 216 465
319 686 102 220 186 404 186 407 0 4 -164 7 -365 7 l-365 0 0 275 0 275 825 0
c454 0 825 -3 825 -7z"/>
<path d="M11453 3168 c-46 -50 -1373 -2048 -1373 -2067 0 -43 32 -51 215 -51
165 0 172 1 192 22 44 48 1373 2047 1373 2066 0 10 -8 26 -18 35 -16 15 -45
17 -194 17 -168 0 -175 -1 -195 -22z m351 -40 c-19 -34 -1338 -2005 -1348
-2016 -9 -9 -52 -12 -170 -10 l-157 3 628 940 c346 517 652 975 681 1018 l53
77 160 0 c125 0 159 -3 153 -12z"/>
<path d="M14130 3150 c0 -5 6 -10 14 -10 8 0 18 5 21 10 3 6 -3 10 -14 10 -12
0 -21 -4 -21 -10z"/>
<path d="M18292 3135 c9 -20 18 -25 50 -25 38 0 43 5 32 34 -4 11 -19 16 -50
16 -43 0 -43 0 -32 -25z"/>
<path d="M12261 2989 c-6 -18 -11 -48 -10 -68 l0 -36 13 45 c7 25 16 55 20 68
4 13 3 22 -2 22 -6 0 -15 -14 -21 -31z"/>
<path d="M18806 2997 c-12 -9 -17 -23 -14 -49 3 -32 5 -35 26 -27 18 7 22 16
22 49 0 43 -6 48 -34 27z"/>
<path d="M18913 2949 c-13 -5 -23 -15 -23 -24 0 -9 -9 -15 -24 -15 -20 0 -23
-4 -19 -21 4 -12 14 -24 25 -26 11 -3 18 -14 18 -29 0 -27 8 -30 34 -11 14 10
16 25 14 73 -3 59 -4 61 -25 53z"/>
<path d="M12286 2931 c-4 -7 -5 -15 -2 -18 9 -9 19 4 14 18 -4 11 -6 11 -12 0z"/>
<path d="M2292 2868 c-27 -27 -3 -88 34 -88 31 0 54 21 54 48 0 35 -16 52 -50
52 -14 0 -31 -5 -38 -12z"/>
<path d="M975 2841 c-86 -40 -126 -112 -126 -228 0 -169 107 -267 265 -243 41
6 47 4 61 -17 13 -19 24 -23 66 -23 l51 0 -35 42 -35 41 29 39 c51 71 60 188
23 278 -34 80 -112 130 -204 130 -32 0 -71 -8 -95 -19z m154 -86 c16 -8 36
-30 45 -49 26 -54 20 -171 -10 -205 -2 -3 -15 6 -28 18 -17 16 -33 22 -60 19
l-36 -3 26 -38 c15 -20 24 -40 20 -44 -13 -13 -89 22 -110 50 -25 34 -34 143
-16 187 29 70 104 99 169 65z"/>
<path d="M18990 2809 c0 -43 3 -50 16 -45 9 3 19 6 24 6 4 0 10 9 13 20 3 12
14 20 26 20 16 0 21 -6 21 -26 0 -24 2 -25 53 -22 45 3 52 6 55 26 2 14 10 22
23 22 20 0 23 8 13 34 -5 13 -26 16 -125 16 l-119 0 0 -51z"/>
<path d="M2120 2610 l0 -240 50 0 50 0 0 240 0 240 -50 0 -50 0 0 -240z"/>
<path d="M2468 2778 c-2 -36 -7 -44 -25 -46 -19 -3 -23 -10 -23 -37 0 -27 4
-34 23 -37 21 -3 22 -8 27 -126 5 -115 7 -125 29 -143 17 -14 39 -19 83 -19
58 0 60 1 54 23 -3 12 -6 30 -6 40 0 12 -8 17 -30 17 -37 0 -42 16 -38 125 l3
80 33 3 c29 3 32 6 32 37 0 31 -3 34 -32 37 -31 3 -33 6 -36 46 l-3 42 -44 0
-44 0 -3 -42z"/>
<path d="M3568 2778 c-2 -36 -7 -44 -25 -46 -19 -3 -23 -10 -23 -37 0 -27 4
-34 23 -37 21 -3 22 -8 27 -126 5 -115 7 -125 29 -143 17 -14 39 -19 83 -19
58 0 60 1 54 23 -3 12 -6 30 -6 40 0 12 -8 17 -30 17 -37 0 -42 16 -38 125 l3
80 33 3 c29 3 32 6 32 37 0 31 -3 34 -32 37 -31 3 -33 6 -36 46 l-3 42 -44 0
-44 0 -3 -42z"/>
<path d="M12307 2773 c-4 -3 -7 -13 -7 -21 0 -12 3 -12 15 -2 8 7 15 16 15 21
0 11 -14 12 -23 2z"/>
<path d="M17980 2735 c0 -20 5 -25 25 -25 20 0 25 5 25 25 0 20 -5 25 -25 25
-20 0 -25 -5 -25 -25z"/>
<path d="M19250 2750 c0 -21 21 -50 35 -50 8 0 15 -9 15 -20 0 -18 -7 -20 -75
-20 -77 0 -84 -4 -65 -41 8 -14 21 -19 50 -19 l40 0 0 -50 c0 -47 2 -50 25
-50 18 0 25 -5 25 -20 0 -21 8 -24 34 -14 11 4 16 19 16 45 0 35 -3 39 -25 39
-34 0 -37 47 -2 52 21 3 22 8 22 78 l0 75 -47 3 c-31 2 -48 -1 -48 -8z"/>
<path d="M17028 2739 c-14 -8 -18 -23 -18 -69 0 -66 13 -77 50 -40 11 11 27
20 35 20 8 0 15 5 15 11 0 20 -21 49 -35 49 -8 0 -15 9 -15 20 0 22 -7 24 -32
9z"/>
<path d="M1835 2726 c-42 -16 -85 -57 -85 -81 0 -23 82 -24 101 -1 30 36 109
18 109 -25 0 -20 -11 -24 -97 -38 -80 -12 -101 -25 -119 -67 -19 -46 -4 -105
33 -129 39 -26 116 -24 153 3 30 22 30 22 30 2 0 -17 6 -20 50 -20 l50 0 0
135 c0 152 -9 184 -61 210 -44 23 -117 28 -164 11z m125 -219 c0 -33 -26 -64
-59 -72 -73 -16 -100 58 -31 82 19 7 47 12 63 12 22 1 27 -3 27 -22z"/>
<path d="M3265 2725 c-54 -19 -75 -47 -75 -101 0 -67 29 -87 173 -118 34 -8
45 -32 24 -53 -23 -23 -73 -20 -100 5 -28 26 -94 31 -103 7 -9 -21 20 -62 59
-82 44 -22 141 -22 190 2 83 39 89 143 11 180 -18 8 -53 18 -79 22 -25 3 -56
14 -68 24 l-22 19 24 20 c13 11 31 20 41 20 9 0 29 -9 43 -20 31 -25 107 -28
107 -5 0 27 -54 76 -95 85 -54 13 -83 12 -130 -5z"/>
<path d="M3865 2726 c-41 -16 -85 -57 -85 -81 0 -21 86 -24 98 -4 26 41 112
25 112 -21 0 -21 -10 -25 -97 -39 -80 -12 -101 -25 -119 -67 -19 -46 -4 -105
33 -129 39 -26 116 -24 153 3 30 22 30 22 30 2 0 -17 6 -20 50 -20 l50 0 0
135 c0 152 -9 184 -61 210 -44 23 -117 28 -164 11z m111 -261 c-32 -49 -116
-41 -116 9 0 30 10 36 75 51 49 11 50 11 53 -12 2 -13 -4 -35 -12 -48z"/>
<path d="M4575 2725 c-22 -8 -48 -24 -57 -36 -18 -21 -24 -82 -12 -114 9 -22
70 -52 126 -60 57 -9 84 -26 75 -49 -15 -38 -85 -40 -116 -2 -18 21 -89 22
-97 1 -9 -21 20 -62 59 -82 44 -22 141 -22 190 2 68 32 88 111 41 158 -18 18
-48 31 -99 42 -89 20 -110 38 -76 66 30 24 52 24 84 -1 30 -24 107 -28 107 -6
0 26 -51 75 -88 86 -50 13 -89 12 -137 -5z"/>
<path d="M1360 2600 c0 -184 24 -230 118 -230 49 0 79 13 104 44 17 21 18 21
18 -11 0 -32 1 -33 45 -33 l45 0 0 180 0 180 -50 0 -50 0 0 -120 c0 -107 -2
-122 -20 -140 -11 -11 -31 -20 -45 -20 -14 0 -34 9 -45 20 -18 18 -20 33 -20
140 l0 120 -50 0 -50 0 0 -130z"/>
<path d="M2280 2550 l0 -180 50 0 50 0 0 180 0 180 -50 0 -50 0 0 -180z"/>
<path d="M2697 2603 c92 -261 89 -249 68 -273 -13 -14 -27 -19 -40 -16 -18 5
-24 -1 -33 -31 -6 -20 -10 -39 -8 -41 10 -10 107 -2 133 11 38 20 51 47 132
277 l68 195 -50 3 c-27 2 -51 1 -53 -1 -3 -2 -21 -61 -41 -131 -20 -69 -38
-124 -40 -122 -4 3 -22 67 -64 219 -10 37 -10 37 -63 37 l-54 0 45 -127z"/>
<path d="M4147 2603 c92 -261 89 -249 68 -273 -13 -14 -27 -19 -40 -16 -18 5
-24 -1 -33 -31 -6 -20 -10 -39 -7 -41 9 -9 96 -4 124 7 42 18 52 37 116 217
31 88 65 183 75 212 l20 52 -53 0 -53 0 -16 -52 c-9 -29 -26 -88 -39 -131 -12
-42 -24 -75 -26 -73 -4 3 -22 68 -64 219 -10 37 -10 37 -63 37 l-54 0 45 -127z"/>
<path d="M12430 2665 c-35 -43 -55 -103 -52 -159 2 -31 8 -53 13 -50 5 3 16
-10 24 -28 l14 -33 1 43 c0 38 2 42 18 33 16 -8 22 -4 35 25 21 44 21 56 0 52
-10 -2 -19 4 -21 15 -2 10 2 16 9 15 7 -2 17 7 24 18 6 12 17 29 25 39 10 12
5 11 -23 -5 -28 -16 -38 -30 -44 -58 l-7 -37 -7 43 c-5 25 -4 54 2 69 12 31 7
39 -11 18z"/>
<path d="M18847 2653 c-11 -10 -8 -93 2 -93 20 0 41 13 41 25 0 8 10 15 23 17
16 2 21 9 19 23 -2 11 -9 23 -15 27 -15 10 -61 10 -70 1z"/>
<path d="M19047 2653 c-4 -3 -7 -17 -7 -30 0 -18 6 -23 24 -23 18 0 25 -6 28
-22 2 -15 11 -24 25 -26 14 -2 23 -11 25 -25 4 -31 52 -31 56 0 3 17 -3 22
-25 25 -20 2 -29 10 -33 28 -4 16 -14 26 -28 28 -16 2 -22 10 -22 28 0 17 -6
24 -18 24 -10 0 -22 -3 -25 -7z"/>
<path d="M15380 2604 c0 -15 37 -61 44 -54 3 3 -6 19 -19 35 -13 17 -24 25
-25 19z"/>
<path d="M18994 2596 c-9 -24 3 -46 26 -46 17 0 21 5 18 27 -3 31 -34 44 -44
19z"/>
<path d="M17170 2524 c0 -21 4 -25 23 -22 14 2 23 11 25 26 3 18 -1 22 -22 22
-21 0 -26 -5 -26 -26z"/>
<path d="M17772 2528 c2 -17 10 -23 28 -23 18 0 26 6 28 23 3 19 -1 22 -28 22
-27 0 -31 -3 -28 -22z"/>
<path d="M12543 2512 c-18 -9 -34 -25 -38 -40 -10 -39 8 -45 37 -12 14 16 23
32 20 35 -3 3 -1 5 5 5 6 0 13 7 17 15 6 18 1 17 -41 -3z"/>
<path d="M17688 2489 c-26 -15 -25 -79 1 -79 26 0 43 24 39 56 -3 31 -15 38
-40 23z"/>
<path d="M15061 2449 c-9 -15 -10 -24 -2 -32 13 -13 15 -54 2 -61 -4 -3 -6
-39 -3 -79 3 -49 1 -77 -7 -81 -6 -4 -11 -16 -11 -26 0 -10 -4 -20 -9 -22 -4
-1 -12 -14 -16 -28 -7 -24 -5 -23 29 9 54 52 71 131 56 260 -9 73 -20 89 -39
60z"/>
<path d="M16870 2441 c0 -30 14 -41 51 -41 35 0 39 -3 39 -25 0 -20 5 -25 24
-25 18 0 25 -6 28 -22 4 -31 48 -39 48 -8 0 11 6 22 13 24 43 13 45 15 40 36
-8 29 -47 23 -51 -7 -5 -35 -52 -32 -52 2 0 20 -5 25 -24 25 -17 0 -26 7 -30
25 -5 21 -12 25 -46 25 -22 0 -40 -4 -40 -9z"/>
<path d="M17773 2434 c-3 -8 -1 -20 5 -26 16 -16 47 -5 50 20 3 18 -1 22 -23
22 -14 0 -28 -7 -32 -16z"/>
<path d="M19150 2441 c0 -30 14 -41 51 -41 39 0 44 5 33 34 -7 17 -84 23 -84
7z"/>
<path d="M4881 2368 c-7 -40 -15 -83 -18 -96 -5 -21 -3 -23 28 -20 31 3 35 7
50 53 9 28 20 69 24 93 l7 42 -40 0 -39 0 -12 -72z"/>
<path d="M12613 2374 c-13 -20 -24 -41 -24 -47 -1 -7 -5 2 -8 18 l-8 30 -11
-40 c-6 -24 -7 -56 -2 -80 l8 -40 1 49 c1 67 11 52 22 -35 9 -75 29 -139 61
-197 10 -18 17 -36 17 -40 -1 -4 -1 -14 0 -22 1 -13 3 -13 10 -1 6 10 2 30
-14 61 -13 25 -30 70 -38 100 -16 57 -29 222 -17 215 4 -2 14 11 23 30 22 45
8 44 -20 -1z"/>
<path d="M16860 2325 c0 -20 5 -25 25 -25 23 0 25 -3 25 -50 0 -44 -3 -52 -25
-62 -21 -9 -25 -18 -25 -51 0 -32 3 -38 16 -33 9 3 20 6 25 6 5 0 9 20 9 45 0
39 3 45 24 51 13 3 26 14 29 25 3 11 14 19 26 19 24 0 25 4 11 31 -8 14 -21
19 -50 19 -36 0 -40 3 -40 25 0 20 -5 25 -25 25 -20 0 -25 -5 -25 -25z"/>
<path d="M17722 2328 c4 -31 53 -34 53 -3 0 15 -8 21 -28 23 -25 3 -28 0 -25
-20z"/>
<path d="M19142 2328 c4 -31 53 -34 53 -3 0 15 -8 21 -28 23 -25 3 -28 0 -25
-20z"/>
<path d="M14737 2322 c-11 -2 -17 -10 -14 -20 2 -10 -2 -29 -9 -43 -7 -15 -10
-29 -7 -33 4 -3 2 -6 -4 -6 -5 0 -20 -22 -33 -50 -13 -27 -26 -50 -30 -50 -4
0 -21 -29 -39 -65 -18 -36 -38 -65 -44 -65 -8 0 -7 -4 1 -12 21 -21 59 29 133
177 71 140 80 174 46 167z"/>
<path d="M12700 2276 c0 -19 -5 -38 -11 -42 -8 -5 -10 -30 -5 -81 9 -114 16
-114 51 -4 5 17 4 21 -5 16 -9 -6 -10 11 -5 69 6 66 5 76 -9 76 -12 0 -16 -9
-16 -34z"/>
<path d="M14435 2250 c-21 -32 -43 -57 -47 -54 -4 3 -5 11 -1 19 3 8 1 15 -3
15 -17 -1 -86 -130 -99 -187 -18 -73 -18 -75 -2 -97 13 -17 16 -15 39 25 14
24 33 67 43 94 11 28 41 92 68 143 27 51 48 95 45 97 -2 2 -21 -22 -43 -55z"/>
<path d="M13885 2290 c-3 -5 -1 -10 4 -10 6 0 11 5 11 10 0 6 -2 10 -4 10 -3
0 -8 -4 -11 -10z"/>
<path d="M18440 2291 c0 -30 14 -41 51 -41 39 0 44 5 33 34 -7 17 -84 23 -84
7z"/>
<path d="M14315 2229 c-11 -16 -24 -29 -29 -29 -13 0 -54 -50 -71 -87 -18 -38
-19 -65 -3 -81 19 -19 32 -14 47 20 8 18 29 58 46 89 48 83 55 157 10 88z"/>
<path d="M12530 2233 c0 -12 5 -25 10 -28 13 -8 13 15 0 35 -8 12 -10 11 -10
-7z"/>
<path d="M19300 2225 c0 -20 5 -25 25 -25 20 0 25 5 25 25 0 20 -5 25 -25 25
-20 0 -25 -5 -25 -25z"/>
<path d="M13925 2232 c-13 -9 -115 -140 -115 -147 0 -3 -18 -25 -40 -48 -39
-40 -47 -66 -23 -74 24 -8 120 100 157 180 36 74 43 105 21 89z"/>
<path d="M14874 2228 c3 -7 9 -21 12 -30 7 -20 24 -24 24 -7 0 17 -20 49 -31
49 -6 0 -8 -6 -5 -12z"/>
<path d="M13800 2208 c0 -11 12 -10 30 2 12 7 10 9 -8 7 -12 0 -22 -5 -22 -9z"/>
<path d="M14650 2189 c0 -5 5 -7 10 -4 6 3 10 8 10 11 0 2 -4 4 -10 4 -5 0
-10 -5 -10 -11z"/>
<path d="M13976 2168 c-19 -92 -14 -272 7 -265 52 17 70 166 29 245 -26 48
-30 51 -36 20z"/>
<path d="M17680 2141 c0 -21 13 -41 26 -41 8 0 14 -10 14 -25 0 -14 5 -25 11
-25 20 0 49 21 49 35 0 8 9 15 20 15 23 0 24 4 10 31 -9 15 -22 19 -70 19 -33
0 -60 -4 -60 -9z"/>
<path d="M11490 2120 c-141 -18 -238 -66 -336 -164 -166 -166 -205 -405 -101
-626 41 -88 160 -208 248 -249 324 -154 694 11 784 349 32 120 14 294 -42 404
-38 76 -164 196 -243 233 -100 47 -210 66 -310 53z m210 -67 c242 -66 398
-324 346 -573 -41 -197 -180 -345 -371 -395 -204 -53 -438 41 -554 224 -98
154 -99 378 -2 530 123 190 354 276 581 214z"/>
<path d="M11480 1708 c-62 -33 -85 -68 -85 -133 0 -60 19 -95 76 -133 28 -20
44 -23 92 -20 49 4 62 9 92 38 63 62 71 148 18 211 -51 61 -120 74 -193 37z
m154 -69 c85 -95 -64 -231 -154 -140 -54 54 -50 118 11 159 47 33 103 25 143
-19z"/>
<path d="M16922 2078 c-14 -14 -16 -78 -3 -78 30 0 41 14 41 51 0 40 -14 51
-38 27z"/>
<path d="M972 1993 c-11 -32 -47 -137 -81 -234 -33 -97 -61 -179 -61 -183 0
-3 24 -6 53 -6 l53 0 18 55 17 55 89 0 89 0 16 -55 16 -55 55 0 c41 0 55 3 52
13 -3 6 -40 114 -83 240 l-78 227 -67 0 -68 0 -20 -57z m118 -138 c13 -38 25
-76 28 -82 3 -10 -12 -13 -58 -13 -52 0 -61 2 -56 16 3 8 16 49 28 90 12 41
24 71 28 67 4 -4 18 -39 30 -78z"/>
<path d="M1330 1810 l0 -240 50 0 50 0 0 240 0 240 -50 0 -50 0 0 -240z"/>
<path d="M18690 2046 c0 -3 4 -16 10 -30 8 -21 16 -26 43 -26 42 0 48 6 35 36
-9 19 -19 24 -50 24 -21 0 -38 -2 -38 -4z"/>
<path d="M2125 1926 c-42 -16 -85 -57 -85 -81 0 -23 82 -24 101 -1 30 36 109
18 109 -25 0 -20 -11 -24 -97 -38 -80 -12 -101 -25 -119 -67 -19 -46 -4 -105
33 -129 39 -26 116 -24 153 3 30 22 30 22 30 2 0 -17 6 -20 50 -20 l50 0 0
135 c0 152 -9 184 -61 210 -44 23 -117 28 -164 11z m125 -219 c0 -33 -26 -64
-59 -72 -73 -16 -100 58 -31 82 19 7 47 12 63 12 22 1 27 -3 27 -22z"/>
<path d="M2845 1925 c-22 -8 -48 -24 -57 -36 -18 -21 -24 -82 -12 -114 9 -22
70 -52 126 -60 57 -9 84 -26 75 -49 -15 -38 -85 -40 -116 -2 -18 21 -89 22
-97 1 -9 -21 20 -62 58 -81 44 -23 143 -22 191 1 68 32 88 111 41 158 -18 18
-48 31 -99 42 -89 20 -110 38 -76 66 30 24 52 24 84 -1 30 -24 107 -28 107 -6
0 26 -51 75 -88 86 -50 13 -89 12 -137 -5z"/>
<path d="M16878 1929 c-12 -7 -18 -22 -18 -49 l0 -40 75 0 c53 0 75 4 75 13 0
24 -16 36 -55 39 -33 2 -41 7 -43 26 -4 24 -9 26 -34 11z"/>
<path d="M18590 1935 c0 -4 5 -15 10 -26 9 -16 22 -19 71 -19 57 0 60 1 57 23
-3 20 -9 22 -70 25 -38 2 -68 0 -68 -3z"/>
<path d="M18790 1915 c0 -20 5 -25 25 -25 20 0 25 5 25 25 0 20 -5 25 -25 25
-20 0 -25 -5 -25 -25z"/>
<path d="M19248 1893 c-3 -42 -6 -48 -26 -51 -16 -3 -22 -8 -18 -19 3 -8 6
-19 6 -24 0 -6 19 -9 43 -7 l42 3 3 48 c3 39 6 47 23 47 15 0 20 6 17 23 -2
18 -10 23 -45 25 l-42 3 -3 -48z"/>
<path d="M1470 1919 c0 -7 20 -86 45 -176 25 -90 45 -165 45 -168 0 -3 25 -5
55 -5 l54 0 11 43 c29 109 50 180 53 184 2 2 17 -47 34 -109 l29 -113 55 -3
54 -3 44 163 c24 90 46 171 48 181 5 14 -2 17 -45 17 l-50 0 -29 -122 -29
-123 -29 123 -28 122 -53 0 -52 0 -29 -122 -29 -123 -29 123 -29 122 -48 0
c-29 0 -48 -4 -48 -11z"/>
<path d="M2407 1833 c19 -54 49 -139 66 -190 31 -91 31 -92 12 -113 -13 -14
-26 -19 -42 -15 -19 4 -24 0 -32 -32 -6 -20 -9 -39 -6 -41 2 -2 26 -4 53 -4
48 0 104 20 119 44 4 7 42 110 84 228 l76 215 -50 3 c-27 2 -51 1 -53 -1 -3
-2 -21 -61 -41 -131 -20 -69 -38 -125 -40 -123 -1 2 -17 53 -33 113 -17 60
-33 117 -36 127 -4 13 -17 17 -59 17 l-53 0 35 -97z"/>
<path d="M17388 1879 c-12 -7 -18 -22 -18 -49 0 -36 -3 -40 -25 -40 -20 0 -25
-5 -25 -25 0 -20 5 -25 25 -25 20 0 25 5 25 25 0 17 8 29 25 37 20 9 25 18 25
50 0 40 -4 44 -32 27z"/>
<path d="M18482 1868 c2 -17 10 -23 28 -23 18 0 26 6 28 23 3 19 -1 22 -28 22
-27 0 -31 -3 -28 -22z"/>
<path d="M18799 1818 c6 -18 17 -24 50 -26 33 -3 44 -8 53 -28 9 -19 19 -24
50 -24 34 0 38 -3 38 -25 0 -23 -3 -25 -50 -25 -47 0 -50 2 -50 25 0 20 -5 25
-25 25 -20 0 -25 -5 -25 -25 0 -20 5 -25 25 -25 20 0 25 -5 25 -25 0 -20 -5
-25 -23 -25 -16 0 -28 9 -35 25 -10 21 -19 25 -52 25 -36 0 -40 -2 -40 -25 0
-23 -3 -25 -50 -25 l-50 0 0 -50 0 -50 -50 0 -50 0 0 -50 c0 -27 3 -50 6 -50
16 0 44 23 44 36 0 25 44 13 48 -13 3 -19 -1 -23 -23 -23 -23 0 -26 -4 -23
-27 2 -20 9 -29 26 -31 17 -3 22 -9 20 -25 -3 -19 -11 -22 -50 -25 -52 -3 -53
-4 -38 -33 9 -16 22 -19 76 -19 62 0 65 -1 62 -22 -3 -20 -10 -23 -50 -26 -52
-3 -53 -4 -38 -33 9 -17 22 -19 100 -19 l90 0 0 50 c0 47 -2 50 -25 50 -20 0
-25 5 -25 25 0 20 5 25 25 25 18 0 28 -7 35 -25 8 -21 16 -25 50 -25 36 0 40
-2 40 -25 0 -20 -5 -25 -25 -25 -23 0 -24 -2 -13 -25 6 -14 17 -25 25 -25 10
0 13 -27 13 -125 l0 -125 -50 0 c-47 0 -50 -2 -50 -25 0 -20 -5 -25 -25 -25
-20 0 -25 -5 -25 -25 0 -23 -3 -25 -51 -25 -43 0 -50 -3 -47 -17 3 -16 18 -18
124 -21 115 -2 122 -1 127 18 7 26 37 26 44 0 7 -27 49 -27 56 0 3 12 14 20
26 20 12 0 21 3 21 6 0 16 -23 44 -36 44 -12 0 -14 10 -12 48 3 40 6 47 26 50
20 3 22 0 22 -47 0 -34 4 -51 13 -51 17 0 32 12 40 33 3 9 15 17 26 17 13 0
21 8 23 23 3 19 9 22 53 22 44 0 50 -3 53 -22 3 -17 -2 -22 -25 -25 -20 -2
-29 -9 -31 -25 -3 -20 1 -23 27 -23 26 0 31 4 31 25 0 23 4 25 45 25 25 0 45
4 45 9 0 21 -13 41 -26 41 -10 0 -14 14 -14 50 0 47 2 50 25 50 l25 0 0 124 0
124 -50 4 c-28 1 -50 -1 -50 -5 0 -19 22 -47 36 -47 10 0 14 -8 12 -22 -3 -22
-8 -23 -78 -23 -70 0 -75 1 -78 23 -2 12 -6 22 -8 22 -16 0 -44 -23 -44 -36 0
-12 -10 -14 -47 -12 -41 3 -48 6 -51 26 -3 18 1 22 22 22 21 0 26 5 26 25 0
20 5 25 25 25 20 0 25 5 25 25 0 20 5 25 25 25 14 0 25 5 25 11 0 20 -21 49
-35 49 -11 0 -15 13 -15 50 l0 50 -45 0 c-25 0 -45 -4 -45 -9 0 -21 13 -41 26
-41 8 0 14 -10 14 -24 0 -18 -6 -25 -22 -28 -20 -3 -24 -11 -28 -53 -4 -41 -8
-50 -25 -50 -12 0 -21 -9 -25 -25 -8 -36 -41 -37 -61 -2 -14 24 -21 28 -51 24
-31 -3 -36 -1 -48 27 -7 17 -19 31 -26 31 -8 0 -14 9 -14 20 0 11 -4 20 -9 20
-21 0 -41 -13 -41 -26 0 -8 -10 -14 -25 -14 -20 0 -25 5 -25 23 0 16 9 28 25
35 21 10 25 19 25 52 0 37 2 41 23 38 14 -2 23 -11 25 -25 4 -26 6 -27 33 -13
16 9 19 22 19 75 0 63 1 65 25 65 23 0 25 -3 25 -51 0 -43 3 -50 16 -45 9 3
20 6 25 6 5 0 9 9 9 20 0 15 7 20 25 20 20 0 25 -5 25 -26 0 -20 4 -25 16 -20
9 3 20 6 25 6 5 0 9 32 9 70 0 68 1 70 25 70 23 0 25 -3 25 -50 l0 -50 50 0
c28 0 50 3 50 6 0 16 -23 44 -35 44 -12 0 -15 16 -15 75 0 73 1 75 25 75 20 0
25 5 25 25 0 20 -5 25 -25 25 -20 0 -25 -5 -25 -26 0 -21 -4 -25 -22 -22 -15
2 -24 11 -26 26 -3 19 -9 22 -53 22 -46 0 -49 -2 -49 -25 0 -20 -5 -25 -23
-25 -16 0 -28 9 -35 25 -10 21 -19 25 -51 25 -38 0 -40 -2 -32 -22z m291 -713
l0 -75 -75 0 -75 0 0 75 0 75 75 0 75 0 0 -75z m158 53 c-2 -15 -11 -24 -25
-26 -19 -3 -23 1 -23 22 0 21 5 26 26 26 21 0 25 -4 22 -22z m-42 -52 c3 -13
14 -26 25 -29 11 -3 19 -14 19 -27 0 -17 -5 -21 -27 -18 -20 2 -28 9 -28 23 0
12 -8 21 -20 23 -28 5 -39 18 -32 36 10 26 56 20 63 -8z m-266 -201 c0 -20 -5
-25 -25 -25 -20 0 -25 5 -25 25 0 20 5 25 25 25 20 0 25 -5 25 -25z"/>
<path d="M18990 1105 c0 -20 5 -25 25 -25 20 0 25 5 25 25 0 20 -5 25 -25 25
-20 0 -25 -5 -25 -25z"/>
<path d="M16910 1765 c0 -20 5 -25 25 -25 20 0 25 5 25 25 0 20 -5 25 -25 25
-20 0 -25 -5 -25 -25z"/>
<path d="M19147 1734 c-4 -4 -7 -16 -7 -26 0 -15 6 -19 28 -16 19 2 27 9 27
23 0 20 -33 33 -48 19z"/>
<path d="M19250 1690 c0 -47 -2 -50 -25 -50 -37 0 -31 -39 8 -53 9 -3 17 -16
17 -27 0 -11 3 -20 6 -20 16 0 44 23 44 35 0 8 9 15 20 15 11 0 20 4 20 9 0
21 -13 41 -26 41 -8 0 -14 10 -14 25 0 18 5 25 20 25 21 0 24 8 14 34 -4 11
-19 16 -45 16 l-39 0 0 -50z"/>
<path d="M13875 1680 l-20 -9 20 0 c11 0 27 4 35 9 13 9 13 10 0 9 -8 0 -24
-4 -35 -9z"/>
<path d="M16967 1683 c-4 -3 -7 -15 -7 -25 0 -13 7 -18 25 -18 20 0 25 5 25
25 0 18 -5 25 -18 25 -10 0 -22 -3 -25 -7z"/>
<path d="M17075 1666 c-14 -14 -32 -26 -40 -26 -8 0 -15 -4 -15 -9 0 -21 13
-41 26 -41 24 0 17 -54 -8 -65 -20 -9 -23 -19 -26 -72 -3 -55 -6 -63 -22 -63
-17 0 -20 7 -20 45 0 38 -3 45 -20 45 -11 0 -25 -9 -32 -20 -7 -11 -21 -20
-30 -20 -18 0 -23 -16 -12 -44 4 -11 19 -16 48 -16 36 0 45 -4 54 -25 9 -20
19 -25 47 -25 31 0 35 3 35 25 0 20 5 25 25 25 33 0 33 24 -1 55 -20 19 -25
31 -22 62 2 31 7 39 26 41 18 3 22 -1 22 -22 0 -24 3 -26 50 -26 28 0 50 4 50
9 0 20 -13 41 -25 41 -8 0 -15 10 -17 22 -2 14 -12 24 -28 28 -22 5 -25 12
-26 48 -1 55 -7 60 -39 28z"/>
<path d="M3153 1670 c-31 -13 -40 -55 -18 -80 20 -22 65 -26 83 -8 20 20 14
65 -10 82 -25 18 -25 18 -55 6z"/>
<path d="M13855 1620 c-3 -5 1 -10 9 -10 9 0 16 5 16 10 0 6 -4 10 -9 10 -6 0
-13 -4 -16 -10z"/>
<path d="M16917 1583 c-4 -3 -7 -14 -7 -24 0 -11 -9 -19 -22 -21 -15 -2 -24
-11 -26 -25 -3 -19 1 -23 22 -23 18 0 25 6 28 23 2 14 11 23 26 25 29 4 32 52
4 52 -10 0 -22 -3 -25 -7z"/>
<path d="M19147 1534 c-4 -4 -7 -16 -7 -26 0 -15 6 -19 28 -16 19 2 27 9 27
23 0 20 -33 33 -48 19z"/>
<path d="M19313 1523 c-7 -2 -13 -11 -13 -19 0 -8 -10 -14 -25 -14 -20 0 -25
-5 -25 -24 0 -19 -6 -25 -27 -28 -26 -3 -28 -7 -31 -50 -3 -54 13 -63 47 -29
12 12 37 21 63 23 l43 3 3 73 c3 73 -1 79 -35 65z"/>
<path d="M17233 1473 c-7 -2 -13 -11 -13 -19 0 -8 -9 -14 -19 -14 -11 0 -23
-4 -26 -10 -9 -14 13 -50 31 -50 10 0 14 -8 12 -22 -3 -20 -10 -23 -50 -26
-52 -3 -53 -4 -38 -33 9 -17 22 -19 100 -19 l90 0 0 -50 c0 -47 -2 -50 -25
-50 -14 0 -25 -3 -25 -6 0 -16 23 -44 35 -44 26 0 18 -46 -10 -58 -24 -11 -25
-15 -25 -101 0 -85 1 -90 23 -93 14 -2 23 -11 25 -25 3 -19 -1 -23 -22 -23
-19 0 -26 -5 -26 -20 0 -15 7 -20 25 -20 18 0 25 5 25 18 0 11 11 24 25 30 24
11 25 15 25 100 0 85 1 89 25 100 21 10 25 19 25 52 0 36 -2 40 -25 40 l-25 0
0 100 0 100 -50 0 -50 0 0 75 c0 75 -4 82 -37 68z m137 -418 c0 -20 -5 -25
-25 -25 -20 0 -25 5 -25 25 0 20 5 25 25 25 20 0 25 -5 25 -25z"/>
<path d="M18790 1435 c0 -2 5 -16 12 -30 10 -23 16 -25 75 -25 34 0 63 2 63 4
0 3 -4 16 -10 30 -9 24 -14 26 -75 26 -36 0 -65 -2 -65 -5z"/>
<path d="M18440 1410 c-13 -13 -33 -20 -60 -20 -32 0 -40 -4 -40 -18 0 -34 21
-42 107 -42 90 0 103 10 63 50 -11 11 -20 27 -20 35 0 21 -26 19 -50 -5z"/>
<path d="M16928 1319 c-12 -7 -18 -22 -18 -49 0 -36 -3 -40 -25 -40 -23 0 -24
-2 -13 -25 10 -23 17 -25 75 -25 61 0 63 1 63 25 0 20 5 25 25 25 25 0 32 14
17 37 -4 6 -25 13 -47 15 -33 2 -41 7 -43 26 -4 24 -9 26 -34 11z"/>
<path d="M17170 1205 c0 -20 5 -25 25 -25 20 0 25 5 25 25 0 20 -5 25 -25 25
-20 0 -25 -5 -25 -25z"/>
<path d="M13907 1183 c-12 -12 -7 -30 8 -30 8 0 15 9 15 19 0 18 -11 24 -23
11z"/>
<path d="M16903 1096 c-36 -33 -38 -37 -41 -110 -5 -98 3 -142 33 -172 23 -23
31 -24 145 -24 118 0 122 1 145 26 30 32 38 73 33 164 -6 120 -44 150 -186
150 -91 0 -93 0 -129 -34z m220 -27 c34 -18 37 -28 37 -116 0 -112 -11 -123
-118 -123 -114 0 -122 8 -122 118 0 92 3 102 35 120 26 15 140 15 168 1z"/>
<path d="M16967 1024 c-4 -4 -7 -38 -7 -76 l0 -68 80 0 81 0 -3 73 -3 72 -70
3 c-39 1 -74 0 -78 -4z"/>
<path d="M18590 1105 c0 -20 5 -25 25 -25 20 0 25 5 25 25 0 20 -5 25 -25 25
-20 0 -25 -5 -25 -25z"/>
<path d="M18690 1124 c0 -16 23 -44 35 -44 9 0 15 -10 15 -25 0 -14 3 -25 6
-25 16 0 44 23 44 35 0 9 10 15 25 15 28 0 29 3 15 31 -9 16 -22 19 -75 19
-36 0 -65 -3 -65 -6z"/>
<path d="M5447 1067 c-26 -27 -27 -33 -19 -66 9 -31 10 -32 11 -10 1 15 7 29
15 32 12 5 33 65 24 71 -1 1 -16 -11 -31 -27z m8 -26 c-3 -6 -11 -11 -17 -11
-6 0 -6 6 2 15 14 17 26 13 15 -4z"/>
<path d="M18484 1065 c-8 -21 4 -35 32 -35 19 0 24 5 24 25 0 20 -5 25 -25 25
-14 0 -28 -7 -31 -15z"/>
<path d="M17735 1006 c-13 -13 -32 -26 -42 -28 -14 -2 -19 -14 -21 -51 -2 -30
1 -47 8 -47 21 0 50 21 50 35 0 8 9 15 19 15 21 0 31 19 31 60 0 40 -15 45
-45 16z"/>
<path d="M18640 980 c0 -47 -2 -50 -25 -50 -23 0 -25 -3 -25 -50 0 -27 3 -50
6 -50 16 0 44 23 44 35 0 9 10 15 25 15 23 0 25 3 25 50 0 43 3 50 20 50 21 0
24 8 14 34 -4 11 -19 16 -45 16 l-39 0 0 -50z"/>
<path d="M18790 1005 c0 -20 5 -25 25 -25 20 0 25 5 25 25 0 20 -5 25 -25 25
-20 0 -25 -5 -25 -25z"/>
<path d="M17830 956 c0 -21 5 -26 26 -26 21 0 25 4 22 23 -2 14 -11 23 -25 25
-19 3 -23 -1 -23 -22z"/>
<path d="M18303 967 c-13 -6 -23 -16 -23 -24 0 -9 -14 -13 -43 -13 -24 0 -47
-3 -50 -6 -10 -10 12 -44 28 -44 9 0 15 -10 15 -25 0 -23 3 -25 50 -25 43 0
50 -3 50 -20 0 -14 7 -20 24 -20 15 0 26 7 29 20 3 13 14 20 30 20 19 0 24 5
23 23 -1 17 -7 22 -26 22 -18 0 -26 -6 -28 -22 -2 -17 -10 -23 -27 -23 -23 0
-24 3 -27 74 -3 72 -3 73 -25 63z"/>
<path d="M5431 930 c-5 -17 -6 -28 -1 -25 5 3 11 -7 13 -22 2 -16 5 -5 6 25 0
28 -1 52 -3 52 -2 0 -9 -14 -15 -30z"/>
<path d="M17887 909 c-9 -6 -15 -14 -12 -20 4 -5 -15 -9 -44 -9 -34 0 -51 -4
-51 -12 0 -18 12 -33 33 -41 9 -3 17 -13 17 -22 0 -11 12 -15 50 -15 l50 0 0
65 c0 68 -6 75 -43 54z"/>
<path d="M18093 913 c-7 -2 -13 -11 -13 -19 0 -8 -10 -14 -25 -14 -28 0 -29
-3 -15 -31 8 -13 21 -19 46 -19 27 0 37 -5 41 -20 3 -13 14 -20 29 -20 22 0
24 4 24 45 0 41 -2 45 -25 45 -18 0 -25 5 -25 20 0 19 -12 24 -37 13z"/>
<path d="M17533 863 c-7 -2 -13 -11 -13 -19 0 -10 -13 -14 -43 -14 -48 0 -58
-5 -50 -26 4 -10 24 -14 74 -14 l69 0 0 40 c0 39 -7 46 -37 33z"/>
<path d="M17632 858 c-7 -7 -12 -25 -12 -40 0 -23 4 -28 25 -28 23 0 25 4 25
40 0 41 -14 52 -38 28z"/>
<path d="M19313 863 c-7 -2 -13 -11 -13 -19 0 -11 -17 -14 -76 -14 -66 0 -75
-2 -72 -17 3 -15 17 -18 101 -21 l97 -3 0 41 c0 39 -7 46 -37 33z"/>
<path d="M5436 835 c-3 -8 -1 -15 4 -15 6 0 10 7 10 15 0 8 -2 15 -4 15 -2 0
-6 -7 -10 -15z"/>
<path d="M5469 840 c-5 -16 -4 -60 2 -60 13 0 19 32 9 48 -5 10 -10 15 -11 12z"/>
<path d="M17727 824 c-17 -18 -6 -35 21 -32 16 2 27 9 27 18 0 16 -36 26 -48
14z"/>
<path d="M5420 806 c0 -2 7 -9 15 -16 13 -11 14 -10 9 4 -5 14 -24 23 -24 12z"/>
<path d="M5240 745 c0 -35 50 -101 50 -67 0 4 3 16 6 28 3 13 -1 28 -11 38
-21 20 -45 21 -45 1z"/>
<path d="M4930 733 c0 -33 25 -85 48 -101 45 -32 60 -33 60 -8 0 15 -6 23 -17
22 -9 0 -16 6 -16 16 0 9 -9 26 -20 38 -23 25 -55 44 -55 33z"/>
<path d="M5626 701 c-3 -4 3 -16 14 -26 24 -21 25 -34 6 -60 -13 -18 -16 -18
-33 -4 -33 29 -152 86 -163 79 -8 -5 -3 -10 13 -14 13 -3 55 -24 93 -46 38
-22 74 -40 81 -40 6 0 23 -14 37 -32 14 -18 28 -29 32 -25 4 3 2 13 -5 21 -9
11 -7 15 9 19 34 9 26 107 -9 107 -10 0 -26 7 -37 15 -22 17 -31 18 -38 6z"/>
<path d="M4640 669 c0 -19 33 -38 63 -39 29 0 34 19 7 28 -7 3 -10 0 -6 -7 10
-15 -4 -13 -34 5 -24 14 -24 15 -2 11 12 -3 22 -1 22 4 0 5 -11 9 -25 9 -14 0
-25 -5 -25 -11z"/>
<path d="M4795 652 c-8 -22 5 -34 31 -29 13 2 21 0 18 -4 -5 -9 15 -14 90 -24
70 -9 56 14 -25 42 -35 12 -64 23 -64 23 0 1 -10 3 -22 4 -12 1 -25 -4 -28
-12z"/>
<path d="M5310 630 c0 -5 -10 -10 -22 -11 -21 -1 -20 -2 5 -11 15 -5 25 -14
21 -19 -3 -5 0 -9 5 -9 6 0 11 5 11 11 0 6 9 8 21 4 20 -7 20 -6 4 19 -17 26
-45 36 -45 16z"/>
<path d="M5045 620 c3 -5 11 -10 16 -10 6 0 7 5 4 10 -3 6 -11 10 -16 10 -6 0
-7 -4 -4 -10z"/>
<path d="M5170 580 c-8 -5 -10 -10 -5 -10 6 0 17 5 25 10 8 5 11 10 5 10 -5 0
-17 -5 -25 -10z"/>
<path d="M5857 584 c27 -11 1 -31 -38 -29 -39 2 -39 2 -24 -21 8 -13 15 -37
15 -54 0 -18 4 -29 10 -25 6 3 10 16 10 27 0 12 3 18 7 14 8 -8 43 75 36 87
-2 4 -10 7 -16 6 -9 0 -9 -2 0 -5z"/>
<path d="M5820 569 c0 -5 5 -7 10 -4 6 3 10 8 10 11 0 2 -4 4 -10 4 -5 0 -10
-5 -10 -11z"/>
<path d="M5124 554 c-18 -14 -18 -15 4 -4 12 6 22 13 22 15 0 8 -5 6 -26 -11z"/>
<path d="M13960 463 c-41 -36 -79 -72 -85 -78 -5 -7 -50 -45 -100 -86 -128
-105 -275 -259 -275 -289 0 -7 25 -10 70 -9 55 1 68 4 60 15 -13 15 2 27 24
18 17 -6 66 37 66 58 0 7 16 28 35 47 19 19 35 40 35 48 0 20 41 73 57 73 7 0
20 15 29 33 10 17 35 53 57 79 24 28 36 51 31 59 -4 7 -3 10 2 7 5 -4 23 16
41 43 17 27 31 49 30 49 -1 0 -36 -30 -77 -67z m-250 -353 c0 -5 -7 -10 -16
-10 -8 0 -12 5 -9 10 3 6 10 10 16 10 5 0 9 -4 9 -10z"/>
<path d="M13190 367 c0 -71 -4 -117 -10 -117 -5 0 -10 6 -10 14 0 8 -5 18 -11
22 -9 5 -10 -15 -7 -75 3 -44 2 -81 -1 -81 -3 0 -12 -4 -20 -9 -12 -8 -12 -12
2 -26 23 -22 21 -45 -3 -45 -11 0 -20 -4 -20 -9 0 -5 -3 -17 -6 -25 -6 -15 7
-16 105 -15 108 1 111 1 106 22 -3 12 -17 74 -31 137 -25 114 -80 309 -89 318
-3 3 -5 -47 -5 -111z m45 -207 c-3 -5 -13 -10 -21 -10 -8 0 -14 5 -14 10 0 6
9 10 21 10 11 0 17 -4 14 -10z m44 -56 c8 -7 -3 -12 -41 -19 -35 -7 -38 -5
-38 15 0 20 3 22 38 15 20 -4 39 -9 41 -11z m13 -76 c-7 -7 -12 -8 -12 -2 0
14 12 26 19 19 2 -3 -1 -11 -7 -17z"/>
<path d="M5101 448 c-9 -25 -3 -45 9 -31 14 15 22 53 10 53 -6 0 -14 -10 -19
-22z"/>
<path d="M4775 444 c11 -9 35 -22 53 -30 17 -8 32 -21 32 -29 0 -8 8 -15 17
-15 13 0 14 -3 5 -12 -17 -17 -15 -33 3 -18 19 16 19 33 0 69 -10 21 -26 31
-59 40 -61 15 -75 14 -51 -5z"/>
<path d="M4655 353 c-47 -10 -49 -16 -10 -29 22 -7 57 -13 78 -13 l38 -1 -27
25 c-26 24 -38 27 -79 18z"/>
<path d="M13280 267 c0 -9 4 -17 8 -17 5 0 17 -19 27 -42 10 -24 20 -37 23
-30 2 6 10 12 17 12 26 0 26 -20 -1 -56 -18 -23 -24 -38 -17 -42 6 -4 13 -18
16 -32 4 -25 4 -25 6 2 1 20 11 34 36 50 19 13 33 28 31 33 -2 6 1 20 5 33 7
18 5 22 -10 22 -10 0 -26 9 -36 20 -10 11 -27 20 -38 20 -12 0 -31 10 -44 22
-20 18 -23 19 -23 5z"/>
<path d="M4527 238 c-38 -42 -30 -64 17 -44 26 11 37 11 46 3 6 -7 3 2 -7 20
-11 20 -20 28 -25 20 -4 -6 -10 -8 -14 -4 -4 3 -1 13 6 22 24 29 4 15 -23 -17z"/>
<path d="M4471 147 c-7 -9 -10 -21 -7 -26 4 -5 2 -12 -4 -16 -18 -11 -11 -35
10 -35 14 0 20 -7 20 -21 0 -26 24 -20 28 7 3 24 -17 55 -25 37 -2 -7 -9 -13
-15 -13 -6 0 -3 9 7 20 14 15 16 25 9 41 -9 19 -11 19 -23 6z m19 -11 c0 -3
-4 -8 -10 -11 -5 -3 -10 -1 -10 4 0 6 5 11 10 11 6 0 10 -2 10 -4z"/>
<path d="M13463 153 c-26 -5 -32 -47 -9 -56 8 -3 16 -18 19 -34 3 -23 4 -21 6
10 1 28 8 44 29 62 l27 24 -25 -1 c-14 0 -35 -3 -47 -5z"/>
<path d="M4368 133 c12 -2 30 -2 40 0 9 3 -1 5 -23 4 -22 0 -30 -2 -17 -4z"/>
<path d="M4550 64 c0 -8 5 -12 10 -9 6 4 8 11 5 16 -9 14 -15 11 -15 -7z"/>
<path d="M4610 75 c0 -2 8 -20 17 -40 12 -25 23 -35 40 -35 31 0 29 16 -6 51
-26 26 -51 38 -51 24z"/>
<path d="M13346 21 c-4 -7 -5 -15 -2 -18 9 -9 19 4 14 18 -4 11 -6 11 -12 0z"/>
<path d="M13430 15 c-11 -13 -8 -15 14 -15 16 0 26 5 26 15 0 8 -6 15 -14 15
-7 0 -19 -7 -26 -15z"/>
</g>
</svg>
